<svg xmlns="http://www.w3.org/2000/svg" width="1024" height="1024" viewBox="0 0 1024 1024" version="1.1">
	<path d="M 503.253 264.932 C 494.604 271.197, 492.420 275.553, 482.100 307.122 C 480.550 311.863, 478 318.276, 476.432 321.372 C 470.155 333.769, 469.842 323.780, 475.962 306.368 C 477.069 303.218, 477.825 300.491, 477.641 300.308 C 476.735 299.401, 470.512 315.262, 468.424 323.801 C 465.615 335.288, 465.391 340.670, 467.621 343.133 C 469.133 344.804, 468.889 345.478, 463.973 353.212 C 461.075 357.770, 456.719 364.372, 454.293 367.883 L 449.881 374.266 459.690 373.567 C 465.086 373.183, 470.400 372.785, 471.500 372.684 C 473.070 372.540, 473.567 373.193, 473.812 375.727 C 474.067 378.371, 474.519 378.913, 476.312 378.727 C 478.066 378.545, 478.566 379.095, 478.834 381.500 C 479.017 383.150, 479.842 385.252, 480.667 386.171 C 481.543 387.147, 482.028 389.183, 481.834 391.062 C 481.339 395.838, 483.594 396.831, 490.164 394.730 C 493.067 393.802, 495.761 393.370, 496.151 393.771 C 496.540 394.172, 494.864 397.200, 492.426 400.500 C 481.938 414.696, 468.261 437.559, 463.712 448.500 C 461.654 453.450, 459.977 457.872, 459.985 458.327 C 460.001 459.204, 455.762 469.464, 447.933 487.500 C 445.306 493.550, 442.366 500.525, 441.399 503 C 440.432 505.475, 438.561 508.939, 437.242 510.697 L 434.843 513.895 436.921 524.087 C 439.499 536.725, 439.524 535.949, 436.389 540.568 C 434.168 543.841, 433.963 544.712, 435.017 546.400 C 436.096 548.126, 435.895 548.672, 433.465 550.609 C 430.407 553.048, 420.757 558, 419.063 558 C 418.478 558, 418 557.341, 418 556.535 C 418 555.234, 415.163 553, 413.509 553 C 413.167 553, 411.573 554.439, 409.967 556.197 L 407.046 559.395 395.374 553.630 C 386.321 549.159, 383.511 548.161, 382.851 549.182 C 382.205 550.183, 381.865 550.011, 381.441 548.470 C 381.133 547.353, 378.546 545.150, 375.691 543.574 C 372.836 541.998, 368.361 539.199, 365.748 537.354 C 363.134 535.509, 360.781 534, 360.518 534 C 359.619 534, 356 541.919, 356 543.887 C 356 545.781, 358.107 547.305, 371.369 555 C 380.824 560.486, 382.869 561.570, 392.452 566.175 L 402.405 570.958 402.124 575.532 C 401.705 582.343, 405.059 584.739, 408.705 580.231 C 409.734 578.958, 410.478 579.335, 413.833 582.826 C 415.991 585.072, 418.026 586.641, 418.354 586.312 C 418.683 585.984, 419.711 586.342, 420.638 587.107 C 421.948 588.189, 422.419 588.221, 422.746 587.250 C 423.345 585.471, 425.672 585.702, 426.405 587.613 C 426.854 588.783, 427.370 588.938, 428.286 588.178 C 428.999 587.586, 431.420 587.381, 433.850 587.707 C 437.932 588.254, 438.274 588.563, 440.575 593.766 C 441.909 596.782, 443 599.378, 443 599.535 C 443 600.028, 430.811 607.495, 423.500 611.480 C 419.650 613.578, 412.450 617.534, 407.500 620.271 C 402.550 623.007, 396.250 626.489, 393.500 628.007 C 384.199 633.143, 350.597 649.800, 334 657.502 C 305.200 670.868, 270.172 684.262, 249.500 689.813 C 243.297 691.479, 242.465 691.988, 242.189 694.286 C 242.002 695.854, 242.648 697.648, 243.824 698.824 C 245.543 700.543, 246.391 700.657, 251.134 699.807 C 258.091 698.561, 282.100 690.552, 298 684.175 C 337.252 668.431, 375.200 649.923, 424.838 622.313 C 436.024 616.091, 445.622 611, 446.167 611 C 446.781 611, 446.931 613.383, 446.562 617.250 C 445.783 625.392, 441.502 699.892, 439.536 739.500 C 438.690 756.550, 437.857 773.087, 437.685 776.250 C 437.513 779.413, 437.401 782, 437.436 782 C 437.471 782, 441.027 781.325, 445.338 780.500 C 449.649 779.675, 453.586 779, 454.088 779 C 454.590 779, 455 781.505, 455 784.567 C 455 789.415, 455.226 790.063, 456.750 789.579 C 459.232 788.792, 474.441 786.193, 474.791 786.496 C 475.399 787.024, 469.768 793, 468.661 793.002 C 468.022 793.003, 463.931 794.842, 459.569 797.088 C 444.179 805.013, 436.102 807.215, 432.883 804.363 C 431.431 803.077, 431.200 803.347, 430.615 807.005 C 429.826 811.941, 428.753 811.592, 423.480 804.681 C 421.458 802.031, 419.605 800.061, 419.363 800.304 C 419.120 800.546, 419.595 802.697, 420.417 805.083 C 421.239 807.470, 421.819 809.489, 421.706 809.571 C 421.593 809.653, 418.775 809.992, 415.445 810.324 C 409.638 810.904, 409.323 810.817, 407.776 808.214 C 406.888 806.721, 404.700 804.150, 402.913 802.500 L 399.664 799.500 401.903 803.234 C 404.670 807.845, 404.379 811.375, 401.195 811.827 C 399.927 812.006, 398.344 811.701, 397.677 811.147 C 396.833 810.446, 395.711 810.720, 393.982 812.048 C 390.691 814.577, 390.190 814.489, 389.816 811.311 C 389.513 808.730, 389.428 808.693, 387.724 810.408 C 386.080 812.062, 385.765 812.076, 383.509 810.598 C 380.314 808.504, 379.733 808.582, 380.500 811 C 381.297 813.512, 379.837 813.583, 377.625 811.139 C 376.699 810.115, 374.126 808.459, 371.907 807.458 C 368.560 805.949, 367.968 805.262, 368.430 803.424 C 368.790 801.987, 368.461 801.007, 367.493 800.636 C 366.672 800.321, 366 798.924, 366 797.531 C 366 795.251, 365.609 795, 362.059 795 C 359.891 795, 357.822 794.521, 357.460 793.935 C 357.027 793.234, 356.172 793.439, 354.964 794.533 C 352.845 796.450, 351 795.733, 351 792.991 C 351 790.745, 348.424 789.076, 345.954 789.722 C 344.799 790.024, 343.964 789.463, 343.529 788.091 C 343.164 786.941, 342.480 786, 342.009 786 C 341.539 786, 339.769 784.835, 338.077 783.411 C 335.889 781.570, 335 779.948, 335 777.795 C 335 775.030, 334.761 774.813, 332.250 775.295 C 330.151 775.698, 328.553 775.050, 325.500 772.556 C 322.577 770.169, 320.962 769.485, 319.500 770.018 C 318.400 770.419, 316.104 770.582, 314.397 770.382 C 312.237 770.128, 310.747 770.622, 309.492 772.009 C 308.501 773.104, 306.902 774, 305.939 774 C 304.709 774, 304.336 774.567, 304.685 775.904 C 305.029 777.217, 304.534 778.013, 303.090 778.471 C 301.939 778.837, 300.533 780.005, 299.964 781.068 C 298.786 783.269, 296.816 783.526, 294.105 781.834 C 292.580 780.881, 291.734 781.064, 289.484 782.834 C 285.488 785.977, 283.252 785.596, 281.266 781.431 C 280.100 778.987, 278.708 777.692, 276.846 777.319 C 275.351 777.020, 273.888 776.151, 273.595 775.388 C 273.271 774.542, 271.583 774, 269.272 774 C 266.564 774, 265.124 773.429, 264.232 772 C 263.461 770.765, 261.900 770, 260.152 770 C 258.103 770, 257.007 769.310, 256.182 767.500 C 255.527 766.062, 254.204 765, 253.068 765 C 251.983 765, 249.990 764.497, 248.641 763.882 C 246.825 763.055, 243.887 763.067, 237.343 763.930 C 232.480 764.571, 226.879 765.059, 224.899 765.016 C 222.801 764.970, 220.767 765.576, 220.026 766.468 C 219.327 767.311, 218.128 768, 217.362 768 C 215.709 768, 205 761.047, 205 759.973 C 205 756.346, 224.239 752.577, 226.559 755.750 C 227.438 756.952, 229.363 757.084, 237.315 756.488 C 247.076 755.756, 249.472 754.702, 244.069 753.515 C 242.457 753.161, 240.610 752.235, 239.964 751.457 C 239.091 750.405, 236.858 750.129, 231.266 750.380 C 226.161 750.610, 222.826 750.261, 220.891 749.296 C 214.925 746.319, 216.145 744.936, 227.820 741.440 C 235.846 739.036, 237.591 738.812, 240.391 739.824 C 244.752 741.401, 250.496 741.312, 251.878 739.647 C 252.526 738.866, 256.067 738.032, 260.251 737.676 C 271.647 736.706, 274.255 736.012, 272.853 734.322 C 272.204 733.541, 269.706 732.005, 267.302 730.910 C 264.899 729.815, 263.167 728.538, 263.455 728.073 C 264.314 726.683, 261.243 724.788, 259.189 725.440 C 256.466 726.304, 254 725.100, 254 722.906 C 254 721.774, 252.707 720.403, 250.750 719.458 C 244.117 716.256, 243 715.495, 243 714.175 C 243 713.157, 242.031 712.988, 239.065 713.489 C 235.401 714.108, 235.022 713.942, 233.540 711.077 C 231.838 707.787, 230.205 707.241, 228.075 709.250 C 227.013 710.251, 226.654 710.238, 226.269 709.183 C 224.263 703.685, 215.911 699.940, 205 699.648 C 199.561 699.502, 199.497 699.464, 199.187 696.250 C 199.014 694.462, 199.283 693, 199.784 693 C 200.284 693, 201.775 692.055, 203.097 690.900 C 204.419 689.745, 208.200 687.442, 211.500 685.783 C 214.800 684.124, 219.454 681.181, 221.841 679.242 C 225.524 676.251, 227.269 675.595, 233.341 674.914 C 242.450 673.894, 252 671.376, 252 669.995 C 252 669.570, 250.470 668.936, 248.600 668.585 C 246.731 668.234, 244.661 667.296, 244 666.500 C 243.339 665.704, 241.284 664.769, 239.432 664.421 C 237.580 664.074, 234.902 662.712, 233.481 661.395 C 232.060 660.078, 230.634 659, 230.313 659 C 229.992 659, 228.687 657.875, 227.412 656.500 C 225.780 654.738, 224.048 654, 221.548 654 C 219.596 654, 218 653.626, 218 653.169 C 218 652.712, 216.875 651.736, 215.500 651 C 210.057 648.087, 213.270 645.634, 224.139 644.405 C 228.554 643.905, 229.866 643.466, 228.482 642.952 C 226.613 642.257, 226.603 642.173, 228.317 641.475 C 229.342 641.057, 230.628 641.228, 231.267 641.867 C 233.039 643.639, 237.464 643.199, 240 641 C 241.374 639.808, 243.759 638.994, 245.903 638.985 C 247.881 638.976, 250.175 638.533, 251 638 C 252.167 637.246, 251.885 637.027, 249.729 637.015 C 247.204 637.001, 240.469 633.369, 237.169 630.243 C 236.438 629.549, 235.407 629.248, 234.879 629.575 C 234.352 629.901, 232.987 628.981, 231.846 627.532 C 229.910 625.070, 229.653 625.004, 227.968 626.529 C 226.290 628.048, 226.016 628.016, 224.081 626.081 C 222.937 624.937, 221.507 624, 220.904 624 C 220.302 624, 218.517 623.080, 216.937 621.955 C 214.250 620.042, 213.908 620.014, 211.604 621.524 C 210.250 622.411, 207.440 623.295, 205.360 623.489 C 202.579 623.747, 200.902 624.670, 199.019 626.977 C 197.328 629.049, 195.913 629.904, 194.850 629.496 C 193.835 629.106, 192.550 629.751, 191.370 631.242 C 189.468 633.647, 186.619 635.282, 183.300 635.875 C 182.915 635.944, 183.094 636.494, 183.697 637.097 C 184.300 637.700, 187.653 638.599, 191.147 639.095 C 194.641 639.591, 199.409 640.281, 201.742 640.628 C 204.546 641.044, 206.503 640.827, 207.516 639.987 C 208.359 639.287, 209.205 638.892, 209.396 639.107 C 210.226 640.045, 210.927 648.593, 210.248 649.500 C 208.665 651.616, 204.960 652.942, 202.182 652.386 C 199.774 651.905, 199.185 652.185, 198.699 654.043 C 198.200 655.951, 197.621 656.200, 194.765 655.737 C 192.105 655.305, 190.941 655.687, 189.103 657.597 C 187.831 658.918, 186.241 660, 185.569 660 C 184.898 660, 183.322 661.092, 182.068 662.428 C 180.813 663.763, 179.201 664.630, 178.484 664.355 C 177.765 664.080, 176.893 664.762, 176.539 665.877 C 175.918 667.834, 173.156 669.366, 171.298 668.785 C 170.798 668.628, 169.289 669.659, 167.944 671.075 C 166.600 672.490, 164.713 673.939, 163.750 674.293 C 160.246 675.583, 162.099 677, 167.290 677 C 170.199 677, 175.262 677.707, 178.540 678.572 C 181.818 679.436, 187.425 680.034, 191 679.900 C 194.575 679.766, 199.019 679.734, 200.875 679.828 C 204.124 679.994, 204.226 680.121, 203.612 683.250 C 202.858 687.086, 200.349 689.275, 197.347 688.716 C 195.584 688.387, 194.772 689.236, 192.858 693.407 C 189.927 699.794, 189.415 700.141, 185.879 698.134 C 183.198 696.612, 182.788 696.620, 179.919 698.250 C 178.224 699.212, 175.334 700, 173.496 700 C 171.534 700, 168.986 700.929, 167.327 702.250 C 161.938 706.539, 158.074 709, 156.728 709 C 155.984 709, 153.513 709.900, 151.236 711 C 146.438 713.318, 145.009 713.489, 144.978 711.750 C 144.966 711.063, 144.090 711.625, 143.032 713 C 141.492 715.001, 140.858 715.251, 139.854 714.250 C 137.989 712.391, 137.060 712.712, 135.963 715.597 C 135.420 717.025, 134.081 718.427, 132.988 718.713 C 131.895 718.999, 130.988 719.968, 130.974 720.867 C 130.959 721.802, 129.143 723.326, 126.724 724.432 C 124.401 725.495, 121.934 727.152, 121.241 728.114 C 120.549 729.076, 118.974 730.024, 117.741 730.220 C 116.509 730.417, 119.775 730.952, 125 731.409 C 131.476 731.976, 133.863 732.498, 132.500 733.050 C 129.867 734.116, 129.681 734.090, 143.338 734.531 C 153.822 734.869, 155.671 735.203, 159.514 737.456 C 161.901 738.854, 164.811 741.216, 165.982 742.704 L 168.109 745.409 165.805 747.146 C 164.209 748.349, 163.467 749.978, 163.394 752.442 L 163.288 756 168.394 756.185 C 171.202 756.287, 178 756.242, 183.500 756.085 C 192.502 755.829, 193.750 756.014, 196 757.938 C 197.375 759.114, 201.313 761.896, 204.752 764.122 C 211.302 768.361, 213.010 771.243, 211.094 774.824 C 210.168 776.554, 209.625 776.685, 207.186 775.764 C 202.877 774.138, 199.236 775.500, 197.633 779.337 C 196.650 781.689, 195.305 782.910, 192.955 783.584 C 191.141 784.104, 189.491 785.027, 189.289 785.634 C 188.913 786.762, 192.274 787.352, 207.697 788.863 C 212.205 789.305, 216.494 790.165, 217.227 790.773 C 217.961 791.382, 221.022 792.020, 224.030 792.190 L 229.500 792.500 224 795.086 C 219.198 797.344, 218.235 797.501, 216.413 796.328 C 214.561 795.135, 213.828 795.321, 209.913 797.973 C 204.915 801.360, 203.100 801.620, 199.059 799.531 C 196.420 798.166, 196.181 798.202, 195.702 800.031 C 195.005 802.695, 191.610 802.537, 189.708 799.750 C 188.203 797.545, 188.108 797.535, 185.005 799.250 C 181.470 801.203, 179 801.512, 179 800 C 179 799.450, 178.100 798.100, 177 797 C 174.751 794.751, 174.443 790.547, 176.091 784.609 C 177.157 780.772, 177.108 780.658, 172.532 776.273 C 169.683 773.543, 167.318 772.048, 166.403 772.399 C 165.256 772.839, 165.155 773.421, 165.962 774.929 C 166.539 776.007, 167.458 777.165, 168.005 777.503 C 169.263 778.281, 169.291 783.104, 168.057 786.349 C 166.941 789.285, 163.495 790.655, 161.465 788.971 C 160.673 788.314, 159.438 788.002, 158.721 788.277 C 158.003 788.552, 156.562 788.153, 155.517 787.389 C 154.015 786.290, 153.445 786.261, 152.789 787.250 C 152.169 788.184, 151.481 787.931, 150.069 786.250 C 147.861 783.621, 146.519 783.303, 147.408 785.621 C 147.887 786.869, 147.564 787.119, 146.002 786.711 C 144.140 786.224, 144.180 786.425, 146.487 789.167 C 150.264 793.656, 149.813 794.846, 144.560 794.254 C 142.117 793.979, 138.855 794.098, 137.310 794.520 C 134.574 795.267, 134.560 795.303, 136.809 795.894 C 140.620 796.894, 139.217 798.524, 134.850 798.170 C 132.125 797.950, 131.004 798.197, 131.451 798.920 C 131.818 799.514, 132.879 800.014, 133.809 800.032 C 135.613 800.066, 139.642 802.706, 138.927 803.385 C 138.692 803.607, 136.813 804.489, 134.750 805.344 C 131.219 806.807, 131 807.155, 131 811.307 L 131 815.715 137.147 816.358 C 140.527 816.711, 157.965 817.001, 175.897 817.002 C 193.829 817.003, 219.750 817.341, 233.500 817.752 L 258.500 818.500 244 819.124 C 236.025 819.468, 214.425 819.807, 196 819.878 C 157.260 820.027, 131 820.948, 131 822.157 C 131 822.620, 142.588 823.004, 156.750 823.010 C 180.608 823.019, 220.069 823.654, 323 825.684 C 358.097 826.376, 361.432 826.566, 348 827.109 C 339.475 827.454, 322.600 827.801, 310.500 827.881 C 283.248 828.061, 250.718 829.482, 229 831.441 C 209.894 833.165, 175.452 834.792, 149.252 835.209 L 131.004 835.500 131.002 842.143 L 131 848.785 148.250 849.393 C 212.334 851.653, 227.548 852.268, 227.917 852.612 C 228.146 852.825, 216.896 853.001, 202.917 853.002 C 174.247 853.005, 130.751 854.084, 131.442 854.776 C 131.693 855.026, 194.359 855.668, 270.699 856.202 C 347.040 856.735, 415.125 857.471, 422 857.836 C 433.974 858.472, 433.363 858.535, 407.500 859.339 C 392.650 859.800, 324.475 860.540, 256 860.982 C 187.525 861.425, 131.387 861.835, 131.250 861.893 C 131.113 861.952, 131 863.462, 131 865.250 L 131.001 868.500 183.250 868.500 C 238.017 868.500, 275.822 869.692, 266.500 871.126 C 263.750 871.549, 247.100 873.327, 229.500 875.078 C 211.900 876.829, 197.125 878.601, 196.666 879.015 C 195.595 879.982, 212.607 880.976, 246 881.896 C 268.109 882.505, 273.038 882.910, 275.750 884.339 C 277.537 885.281, 279 886.418, 279 886.865 C 279 887.313, 275.512 888.410, 271.250 889.303 C 264.014 890.818, 265.839 890.920, 276.500 889.596 C 280.035 889.156, 280.151 889.202, 277.500 889.987 C 275.714 890.516, 290.075 890.618, 313 890.238 C 334.175 889.887, 431.600 889.578, 529.500 889.550 C 627.400 889.523, 703.337 889.371, 698.250 889.212 C 693.163 889.054, 689 888.538, 689 888.065 C 689 885.468, 715.449 883.345, 764.500 882.006 C 805.735 880.880, 819 880.112, 819 878.851 C 819 878.383, 818.105 878, 817.010 878 C 815.916 878, 800.279 876.677, 782.260 875.060 C 764.242 873.443, 745.225 871.756, 740 871.310 L 730.500 870.500 748.500 869.829 C 758.400 869.460, 792.938 868.837, 825.250 868.445 L 884 867.733 884 864.977 L 884 862.221 862.750 861.635 C 851.063 861.313, 785.025 860.757, 716 860.401 C 646.975 860.044, 583.975 859.470, 576 859.126 L 561.500 858.500 581.500 857.718 C 592.500 857.287, 664.853 856.559, 742.285 856.100 C 819.716 855.640, 883.284 855.049, 883.547 854.786 C 884.514 853.820, 858.762 852.998, 825.093 852.921 C 806.067 852.878, 790.950 852.684, 791.500 852.490 C 792.407 852.172, 815.905 851.184, 865.671 849.374 L 883.842 848.714 884.171 842.406 C 884.574 834.676, 885.450 835.032, 865.986 835.014 C 843.718 834.993, 806.831 833.159, 783 830.887 C 767.930 829.451, 749.017 828.617, 719.762 828.098 C 651.858 826.893, 660.149 826.383, 786.500 823.994 C 815.650 823.443, 849.513 822.994, 861.750 822.996 C 873.987 822.998, 884 822.620, 884 822.156 C 884 821.080, 860.798 820.008, 837.413 820.004 C 816.721 819.999, 755.858 818.808, 756.251 818.415 C 756.395 818.272, 779.235 817.888, 807.006 817.562 C 834.778 817.236, 863.462 816.706, 870.750 816.383 L 884 815.795 884 811.933 C 884 807.646, 882.159 806, 877.366 806 C 875.156 806, 874.850 805.749, 875.844 804.750 C 876.528 804.063, 878.520 803.013, 880.271 802.419 C 883.002 801.491, 882.214 801.349, 874.727 801.419 C 869.927 801.463, 866 801.241, 866 800.924 C 866 799.630, 870.781 795.997, 875 794.084 L 879.500 792.044 875.500 792.066 C 873.300 792.078, 869.717 792.723, 867.538 793.499 C 865.359 794.275, 863.372 794.705, 863.122 794.455 C 862.871 794.205, 863.119 794, 863.673 794 C 864.693 794, 867.377 789.043, 866.715 788.381 C 866.516 788.183, 865.065 789.366, 863.490 791.010 C 861.915 792.655, 860.260 794, 859.813 794 C 859.366 794, 858.984 792.087, 858.964 789.750 L 858.928 785.500 856.469 788.500 C 855.117 790.150, 854.008 792.063, 854.005 792.750 C 853.997 794.658, 852.314 794.246, 849.918 791.750 C 847.412 789.139, 843.024 780.282, 843.010 777.806 C 843.001 776.258, 843.384 776.282, 847.478 778.093 C 851.757 779.986, 852.101 779.998, 855.228 778.361 C 857.247 777.304, 861.712 776.473, 866.889 776.191 C 873.570 775.828, 874.893 775.513, 873.389 774.646 C 872.350 774.048, 870.239 773.484, 868.698 773.394 C 865.297 773.194, 864.568 772.569, 865.351 770.528 C 866.176 768.377, 870.920 766.739, 874.348 767.422 C 875.914 767.734, 878.363 767.696, 879.790 767.338 C 882.362 766.692, 882.365 766.679, 880.157 765.862 C 878.931 765.409, 877.157 763.682, 876.214 762.025 C 875.271 760.368, 873.867 759.010, 873.094 759.006 C 872.321 759.003, 870.296 757.954, 868.594 756.676 C 866.892 755.398, 864.712 754.063, 863.750 753.708 C 862.788 753.353, 862 752.331, 862 751.438 C 862 750.068, 861.234 749.918, 857.136 750.481 C 853.213 751.021, 852.155 750.845, 851.667 749.575 C 851.335 748.709, 850.149 748, 849.031 748 C 845.484 748, 846.814 744.987, 851.250 742.973 C 853.968 741.739, 857.753 741.036, 861.750 741.022 C 865.235 741.010, 868 740.558, 868 740 C 868 739.450, 867.409 739, 866.687 739 C 864.472 739, 859.854 733.546, 861.054 732.346 C 861.786 731.614, 861.256 730.752, 859.301 729.491 C 857.761 728.498, 856.140 727.081, 855.700 726.343 C 855.260 725.604, 854.248 725, 853.450 725 C 852.653 725, 852 724.550, 852 724 C 852 723.450, 851.380 723, 850.622 723 C 849.865 723, 848.676 722.315, 847.981 721.477 C 847.267 720.617, 845.928 720.206, 844.901 720.531 C 843.486 720.980, 842.896 720.378, 842.230 717.804 C 841.332 714.337, 840.027 713.825, 832.360 713.936 C 830.112 713.969, 828.335 713.077, 826.110 710.801 C 824.399 709.052, 823 707.252, 823 706.802 C 823 706.351, 822.100 706.545, 821 707.232 C 819.395 708.235, 818.593 708.227, 816.937 707.193 C 815.803 706.485, 814.062 706.163, 813.069 706.478 C 811.732 706.902, 810.935 706.256, 809.995 703.987 C 808.520 700.427, 805.732 698.633, 803.014 699.495 C 801.587 699.948, 800.715 699.350, 799.567 697.130 C 797.548 693.224, 792.623 689.797, 788.750 689.603 C 787.045 689.517, 785.476 688.929, 785.266 688.297 C 785.055 687.665, 783.307 685.946, 781.381 684.477 C 778.218 682.065, 777.593 681.926, 774.901 683.041 C 772.077 684.211, 771.748 684.081, 768.607 680.550 C 765.392 676.935, 765.132 676.840, 759.897 677.354 C 756.928 677.646, 751.350 677.530, 747.500 677.097 C 742.722 676.561, 740.267 676.658, 739.765 677.405 C 739.361 678.007, 739.024 678.111, 739.015 677.635 C 739.007 677.159, 737.936 677.467, 736.635 678.320 C 734.900 679.456, 733.973 679.573, 733.158 678.758 C 732.344 677.944, 731.561 678.087, 730.224 679.298 C 729.220 680.205, 726.622 681.316, 724.450 681.765 C 721.417 682.392, 720.424 683.107, 720.173 684.845 C 719.987 686.135, 718.805 687.504, 717.423 688.029 C 716.091 688.536, 715 689.614, 715 690.426 C 715 691.237, 714.239 692.327, 713.309 692.847 C 712.076 693.537, 713.771 693.988, 719.559 694.510 C 723.926 694.903, 729.560 696.097, 732.078 697.162 C 736.058 698.845, 737.638 698.977, 744.162 698.167 C 749.350 697.523, 752.948 696.427, 755.814 694.618 C 760.375 691.738, 763.576 691.362, 766.250 693.392 C 767.959 694.689, 768.778 696.599, 767.210 695.629 C 765.649 694.665, 759.964 698.296, 759.378 700.632 C 759.051 701.934, 758.269 703.030, 757.642 703.067 C 752.738 703.357, 749.437 704.254, 748.749 705.484 C 748.044 706.744, 747.488 706.724, 744.566 705.330 C 741.363 703.803, 741.049 703.829, 738.194 705.862 C 736.543 707.038, 734.719 708, 734.143 708 C 731.762 708, 728.150 710.375, 727.132 712.610 C 726.262 714.519, 725.279 715, 722.244 715 C 720.155 715, 717.470 715.683, 716.278 716.518 C 714.553 717.726, 713.235 717.833, 709.806 717.042 C 703.476 715.582, 703.122 715.680, 700.867 719.500 C 699.259 722.225, 698.158 723, 695.892 723 C 693.631 723, 692.369 723.882, 690.240 726.951 C 688.733 729.123, 687.050 730.870, 686.500 730.832 C 682.125 730.530, 677.897 731.246, 676.643 732.500 C 675.818 733.325, 674.243 734, 673.143 734 C 671.069 734, 668 736.438, 668 738.086 C 668 738.605, 666.538 739.921, 664.750 741.011 L 661.500 742.993 668.316 742.996 C 672.064 742.998, 676.044 743.488, 677.160 744.085 C 679.177 745.165, 679.176 745.184, 676.920 747.585 C 674.172 750.510, 674.124 750.507, 682.009 747.919 C 686.981 746.287, 688.860 746.071, 690.721 746.919 C 694.230 748.517, 696.864 748.247, 700.663 745.899 C 704.868 743.300, 707.347 743.816, 714.154 748.706 C 720.006 752.911, 726.837 754.034, 734.625 752.073 C 738.569 751.080, 740.025 751.168, 744.141 752.648 C 746.813 753.609, 749 754.911, 749 755.543 C 749 757.459, 745.495 760, 742.852 760 C 741.434 760, 739.414 761.089, 738.164 762.526 C 736.315 764.653, 735.637 764.876, 733.881 763.937 C 732.734 763.323, 730.873 763.062, 729.745 763.357 C 727.538 763.934, 722.735 761.876, 719.500 758.968 C 717.125 756.833, 708 755.181, 708 756.886 C 708 757.499, 706.942 758, 705.649 758 C 701.375 758, 697 760.073, 697 762.098 C 697 763.525, 696.284 764, 694.135 764 C 689.992 764, 686 767.481, 686 771.094 C 686 773.269, 685.344 774.342, 683.500 775.182 C 680.449 776.572, 680.258 778.573, 683.105 779.317 C 686.165 780.117, 684.927 782.273, 680.417 784 C 674.500 786.265, 673.704 786.938, 675.038 788.545 C 675.662 789.297, 675.840 790.449, 675.435 791.105 C 674.884 791.997, 675.933 792.138, 679.599 791.664 C 682.295 791.315, 685.128 791.427, 685.896 791.914 C 687.773 793.104, 686.539 796, 684.154 796 C 683.104 796, 681.627 796.745, 680.872 797.655 C 680.118 798.565, 677.925 799.967, 676 800.769 C 674.075 801.572, 671.306 803.077, 669.846 804.114 C 666.676 806.366, 666 806.453, 666 804.607 C 666 800.942, 659.923 802.989, 653.843 808.700 C 652.147 810.294, 649.795 811.293, 647.343 811.463 C 641.040 811.901, 639.188 811.132, 638.450 807.773 C 637.954 805.514, 637.554 805.089, 636.891 806.117 C 636.142 807.280, 635.844 807.262, 635.015 806 C 634.262 804.853, 634.027 805.265, 634.015 807.750 L 634 811 628.519 811 L 623.038 811 623.620 806.250 C 623.941 803.638, 625.071 800.262, 626.131 798.750 C 627.192 797.237, 627.652 796, 627.154 796 C 626.655 796, 624.592 799.150, 622.569 803 C 620.546 806.850, 618.629 810, 618.310 810 C 617.082 810, 619.010 801.227, 621.448 795.714 C 622.851 792.540, 624 789.661, 624 789.316 C 624 788.134, 619.935 792.370, 617.882 795.690 C 614.658 800.908, 613.683 798.883, 614.234 788.111 C 614.694 779.126, 614.638 778.751, 613.378 782.358 C 612.636 784.480, 611.360 790.056, 610.540 794.749 C 609.721 799.443, 608.806 803.527, 608.507 803.826 C 608.208 804.125, 606.080 802.599, 603.779 800.435 C 601.478 798.271, 600.112 797.193, 600.745 798.039 C 602.376 800.223, 603.884 807.569, 602.996 809.006 C 602.414 809.948, 602.085 809.947, 601.500 809 C 600.915 808.053, 600.581 808.060, 599.982 809.028 C 599.389 809.989, 598.476 810.013, 595.958 809.135 C 594.167 808.511, 590.294 808, 587.351 808 C 582.479 808, 581.997 807.799, 581.964 805.750 C 581.930 803.613, 581.805 803.651, 579.478 806.499 C 577.329 809.130, 576.782 809.345, 575.027 808.249 C 573.927 807.562, 571.914 807, 570.554 807 C 567.279 807, 556.206 795.369, 556.035 791.750 C 556.016 791.337, 561.164 791, 567.475 791 L 578.950 791 578.409 788.250 C 577.872 785.520, 577.911 785.499, 583.684 785.297 C 586.883 785.185, 592.087 784.561, 595.250 783.910 C 599.791 782.976, 601 782.332, 601 780.847 C 601 779.813, 598.782 770.537, 596.070 760.233 C 593.359 749.930, 588.208 730.025, 584.624 716 C 575.290 679.473, 559.520 618.795, 557.080 610.020 C 553.478 597.067, 553.573 596.989, 564.222 604.149 C 588.674 620.591, 632.978 655.455, 657.488 677.543 C 661.734 681.369, 665.739 684.627, 666.387 684.781 C 667.035 684.936, 668.844 683.728, 670.407 682.097 C 672.590 679.819, 673.102 678.542, 672.614 676.597 C 670.860 669.608, 613.188 622.902, 570.750 594.102 C 564.837 590.089, 560 586.400, 560 585.903 C 560 584.689, 559.492 584.600, 572.233 588.057 C 595.897 594.479, 623.589 603.871, 651.360 614.895 C 658.433 617.703, 664.418 620, 664.661 620 C 665.512 620, 668 613.040, 668 610.659 C 668 608.475, 666.348 607.594, 650 601.055 C 621.844 589.794, 584.168 577.930, 560.750 572.952 C 551.266 570.935, 549.998 570.421, 549.986 568.583 C 549.979 567.437, 549.717 565.545, 549.403 564.379 C 548.884 562.444, 549.435 562.152, 555.667 561.050 C 559.425 560.385, 563.025 559.681, 563.666 559.485 C 564.530 559.220, 564.441 557.416, 563.318 552.495 C 562.486 548.846, 562.008 545.659, 562.256 545.411 C 562.504 545.162, 566.203 546.619, 570.475 548.648 C 575.878 551.214, 578.687 552.057, 579.702 551.416 C 582.795 549.465, 588.038 539.320, 589.486 532.485 C 591.444 523.240, 591.420 501.884, 589.437 489.926 C 588.016 481.352, 587.586 480.277, 584.687 478.032 C 582.934 476.675, 579.664 473.709, 577.419 471.442 L 573.339 467.318 570.685 469.434 C 569.225 470.598, 566.786 472.286, 565.265 473.184 L 562.500 474.817 562.436 456.159 C 562.338 427.905, 559.011 413.446, 549.365 399.357 C 544.151 391.741, 540.754 385.207, 541.435 384.105 C 541.716 383.650, 547.021 382.511, 553.223 381.573 C 559.425 380.634, 565.472 379.673, 566.659 379.437 C 568.523 379.066, 567.635 377.880, 560.159 370.754 C 555.397 366.214, 549.475 360.281, 547 357.568 C 544.525 354.856, 540.813 350.865, 538.750 348.700 C 536.688 346.536, 535 344.143, 535 343.382 C 535 342.622, 534.157 342, 533.127 342 C 531.357 342, 522.971 333.924, 523.026 332.272 C 523.040 331.848, 524.820 330.685, 526.982 329.688 C 537.685 324.756, 537.683 309.129, 526.980 303.752 C 518.326 299.404, 508.177 304.210, 506.438 313.479 L 505.823 316.756 499.662 316.341 C 494.600 316.001, 492.697 316.349, 489 318.290 C 483.661 321.094, 479.561 326.668, 477.939 333.327 C 477.293 335.981, 476.122 338.400, 475.339 338.700 C 472.820 339.667, 472.592 338.073, 474.700 334.239 C 475.831 332.182, 477.318 328.700, 478.005 326.500 C 483.056 310.325, 495.742 281.973, 504.042 268.310 C 506.151 264.839, 507.746 262, 507.588 262 C 507.430 262, 505.479 263.319, 503.253 264.932 M 502.770 399.449 C 500.286 401.346, 497.116 403.184, 495.727 403.532 C 492.766 404.276, 489.789 407.870, 480.846 421.500 C 472.087 434.850, 464.741 449.863, 465.169 453.538 C 465.482 456.232, 465.654 456.095, 468.410 450.941 C 472.695 442.927, 485.066 424.192, 489.577 418.884 C 491.735 416.345, 496.211 410.945, 499.523 406.884 C 509.918 394.142, 510.016 393.917, 502.770 399.449 M 518.014 400.540 C 514.446 402.462, 509.111 406.390, 506.157 409.267 C 500.320 414.955, 491.081 428.313, 487.979 435.549 C 484.668 443.274, 481.885 456.659, 482.204 463.326 C 482.482 469.124, 482.584 469.353, 483.872 467.089 C 484.626 465.762, 485.827 461.885, 486.541 458.473 C 487.255 455.061, 489.488 448.995, 491.504 444.993 C 495.976 436.111, 502.308 426.423, 502.757 427.772 C 502.939 428.317, 501.088 433.271, 498.645 438.781 C 494.447 448.250, 492.237 455, 493.334 455 C 493.606 455, 496.174 452.051, 499.042 448.448 C 501.909 444.844, 507.834 439.171, 512.208 435.842 C 528.283 423.604, 535.611 408.028, 529.438 399.216 C 527.351 396.235, 525.634 396.434, 518.014 400.540 M 494.973 416.719 C 491.395 419.207, 489.815 421.202, 481.288 434 C 472.772 446.782, 463.816 465.628, 460.924 476.852 C 458.700 485.482, 457.386 499.061, 458.521 501.671 C 459.137 503.088, 459.584 502.373, 460.506 498.500 L 461.697 493.500 462.914 497.851 C 463.584 500.244, 464.299 502.035, 464.503 501.831 C 464.707 501.626, 465.594 496.068, 466.474 489.480 C 467.355 482.891, 468.423 475.925, 468.849 474 C 469.578 470.705, 469.663 470.871, 470.304 476.825 C 471.102 484.236, 472.403 487.458, 473.368 484.413 C 473.702 483.361, 474.901 477.325, 476.034 471 C 480.184 447.833, 484.335 436.009, 492.885 423 C 498.025 415.180, 498.135 415, 497.772 415 C 497.592 415, 496.332 415.774, 494.973 416.719 M 520.490 433.166 C 502.363 445.326, 490.861 458.691, 477.604 483 C 465.887 504.485, 453.845 522.447, 442.859 534.822 C 437.460 540.905, 435.761 544, 437.823 544 C 438.275 544, 442.306 546.681, 446.779 549.958 C 462.783 561.681, 499.187 583.146, 500.625 581.708 C 500.855 581.478, 492.146 575.303, 481.272 567.987 C 470.397 560.670, 459.325 552.972, 456.666 550.879 L 451.832 547.074 456.916 547.676 C 461.885 548.265, 462 548.219, 462 545.664 C 462 543.293, 462.279 543.106, 465 543.650 C 467.319 544.114, 468 543.892, 468 542.672 C 468 541.743, 469.336 540.724, 471.250 540.195 C 474.948 539.172, 492.227 532.272, 496 530.311 C 498.302 529.115, 497.985 529.002, 492 528.879 C 488.425 528.806, 480.645 528.465, 474.710 528.123 L 463.920 527.500 470.238 522.500 C 473.713 519.750, 484.738 512.570, 494.740 506.545 C 504.741 500.520, 512.817 495.484, 512.687 495.354 C 512.118 494.785, 480.299 503.217, 476.241 505.012 C 473.769 506.105, 471.539 507, 471.287 507 C 471.034 507, 483.723 494.132, 499.484 478.403 C 515.245 462.675, 527.898 449.565, 527.603 449.270 C 527.012 448.679, 515.627 455.200, 507 461.071 C 503.975 463.129, 498.177 468.005, 494.115 471.907 C 490.053 475.808, 486.545 479, 486.320 479 C 485.259 479, 499.365 461.566, 509.095 450.851 C 521.819 436.838, 527.440 430.106, 526.881 429.548 C 526.661 429.328, 523.785 430.955, 520.490 433.166 M 451.051 483.905 C 447.841 489.903, 443.006 503.770, 443.042 506.876 C 443.065 508.869, 443.946 512.075, 445 514 L 446.916 517.500 446.958 510.809 C 446.981 507.129, 447.433 503.851, 447.962 503.524 C 448.491 503.197, 449.872 504.789, 451.031 507.062 C 452.191 509.334, 453.377 510.956, 453.667 510.666 C 453.957 510.376, 453.638 506.062, 452.957 501.080 C 452.276 496.098, 451.986 489.767, 452.312 487.011 C 452.950 481.623, 452.658 480.903, 451.051 483.905 M 437.770 512.658 C 436.329 514.100, 436.289 514.655, 437.467 516.908 C 438.952 519.750, 444.737 525.610, 445.384 524.927 C 445.962 524.317, 440.910 511, 440.101 511 C 439.731 511, 438.682 511.746, 437.770 512.658 M 362.648 542.184 C 361.799 545.352, 361.847 546, 362.933 546 C 364.325 546, 365.345 541.945, 364.233 540.833 C 363.613 540.213, 363.046 540.695, 362.648 542.184 M 368.017 545.455 C 366.768 548.739, 366.762 549, 367.933 549 C 368.446 549, 369.208 547.987, 369.628 546.750 C 370.347 544.626, 370.422 544.668, 370.955 547.500 C 371.590 550.872, 373.500 551.151, 373.500 547.872 C 373.500 546.702, 372.495 545.077, 371.267 544.261 C 369.174 542.872, 368.971 542.946, 368.017 545.455 M 377 551 C 377 553, 377.500 554, 378.500 554 C 380.070 554, 380.421 552.262, 379.393 549.582 C 378.391 546.970, 377 547.794, 377 551 M 383 553.992 C 383 557.407, 383.989 557.849, 385.657 555.177 C 386.581 553.698, 386.437 553.130, 384.898 552.168 C 383.192 551.103, 383 551.287, 383 553.992 M 388.568 555.683 C 388.162 556.741, 388.728 558.135, 390.089 559.433 L 392.257 561.500 391.642 559 C 391.304 557.625, 391.021 555.938, 391.014 555.250 C 390.994 553.426, 389.321 553.722, 388.568 555.683 M 393 558.441 C 393 559.784, 393.418 561.140, 393.928 561.456 C 395.056 562.153, 396.379 558.423, 395.506 557.009 C 394.372 555.175, 393 555.960, 393 558.441 M 398.370 559.250 C 398.701 560.487, 398.979 562.288, 398.986 563.250 C 398.994 564.212, 399.675 565, 400.500 565 C 401.325 565, 402 564.325, 402 563.500 C 402 562.675, 402.497 562, 403.105 562 C 404.384 562, 399.936 557.043, 398.633 557.017 C 398.157 557.008, 398.038 558.013, 398.370 559.250 M 406 563.559 C 406 564.416, 406.450 564.840, 407 564.500 C 407.550 564.160, 408 563.459, 408 562.941 C 408 562.423, 407.550 562, 407 562 C 406.450 562, 406 562.702, 406 563.559 M 458.335 597 C 466.648 614.955, 493.395 662.890, 495.997 664.498 C 496.905 665.059, 506.001 658.276, 506 657.038 C 505.999 656.742, 500.732 649.750, 494.295 641.500 C 487.857 633.250, 476.621 618.175, 469.325 608 C 462.029 597.825, 455.373 588.600, 454.535 587.500 C 453.696 586.400, 455.406 590.675, 458.335 597 M 834.194 590.210 C 832.712 591.187, 830.519 591.990, 829.320 591.993 C 827.822 591.998, 827.039 592.705, 826.820 594.250 C 826.594 595.838, 825.937 596.403, 824.586 596.169 C 821.657 595.661, 818.208 597.966, 817.088 601.178 C 816.435 603.050, 814.856 604.580, 812.608 605.519 C 810.699 606.317, 808.854 607.427, 808.509 607.985 C 808.164 608.543, 806.611 609, 805.058 609 C 803.102 609, 802.077 609.598, 801.725 610.942 C 801.059 613.490, 801.691 614, 805.513 614 C 807.262 614, 810.145 614.725, 811.920 615.610 C 813.845 616.570, 816.301 616.990, 818.005 616.649 C 820.378 616.174, 821.381 616.670, 823.931 619.574 C 827.882 624.075, 828.004 626.278, 824.250 625.381 C 822.737 625.020, 820.938 624.281, 820.250 623.740 C 819.355 623.035, 819 623.235, 819 624.445 C 819 625.773, 818.518 625.960, 816.750 625.317 C 812.945 623.935, 805.772 624.591, 804.417 626.445 C 803.742 627.367, 802.031 628.432, 800.614 628.811 C 795.435 630.196, 797.659 631.518, 806.940 632.571 C 812.133 633.160, 816.527 634.060, 816.706 634.571 C 818.433 639.503, 819.659 640.499, 823.894 640.407 C 826.256 640.355, 828.550 639.728, 828.992 639.013 C 829.766 637.760, 836.203 638.200, 852 640.586 C 855.077 641.051, 855.258 640.967, 853.500 639.893 C 852.400 639.221, 851.275 638.340, 851 637.936 C 850.725 637.532, 849.375 637.044, 848 636.851 C 846.320 636.615, 844.844 635.271, 843.500 632.753 C 841.646 629.280, 841.170 629.004, 837 628.989 C 831.015 628.967, 828 628.078, 828 626.336 C 828 624.271, 832.805 620.124, 836.410 619.077 L 839.500 618.180 836.654 618.090 C 835.089 618.041, 832.468 618.788, 830.830 619.750 C 827.961 621.436, 827.799 621.429, 826.426 619.559 C 823.916 616.141, 824.654 615, 829.375 615 C 835.741 615, 840 616.052, 840 617.625 C 840 618.717, 842.533 619, 852.318 619 C 863.020 619, 865.771 618.637, 873.274 616.237 C 878.370 614.607, 881.622 613.070, 881.206 612.487 C 880.037 610.852, 875.982 608.893, 875.010 609.494 C 874.510 609.803, 873.094 608.693, 871.862 607.028 C 870.631 605.363, 869.034 604, 868.312 604 C 867.590 604, 867 603.526, 867 602.946 C 867 600.927, 861.246 595.752, 858.689 595.471 C 855.366 595.107, 854 594.229, 854 592.460 C 854 591.678, 852.763 590.768, 851.250 590.438 C 849.737 590.108, 847.359 589.409, 845.965 588.886 C 842.407 587.552, 837.365 588.119, 834.194 590.210 M 820.446 636.087 C 819.280 637.974, 821.412 638.970, 825.274 638.343 C 830.431 637.506, 830.270 635, 825.059 635 C 822.891 635, 820.816 635.489, 820.446 636.087 M 213.184 640.750 C 213.430 642.896, 214.093 643.568, 216.201 643.812 C 217.686 643.983, 219.878 643.600, 221.072 642.961 C 223.237 641.803, 223.235 641.794, 220.372 639.906 C 218.792 638.865, 216.458 638.010, 215.184 638.007 C 213.245 638.001, 212.919 638.449, 213.184 640.750 M 825.873 645.750 C 821.739 648.770, 819.614 650.019, 815.836 651.652 C 813.820 652.523, 811.950 654.083, 811.679 655.118 C 811.212 656.905, 807.590 657.626, 801.869 657.072 C 800.872 656.976, 799.981 657.941, 799.576 659.555 C 799.033 661.716, 798.491 662.089, 796.583 661.610 C 794.822 661.168, 793.184 661.961, 789.876 664.858 C 787.469 666.966, 784.375 669.307, 783 670.060 C 780.572 671.391, 780.659 671.452, 786 672.202 C 789.025 672.627, 794.255 672.709, 797.621 672.384 C 803.236 671.843, 803.878 671.987, 805.371 674.120 C 806.267 675.399, 807 677.180, 807 678.078 C 807 679.067, 808.281 680.069, 810.250 680.619 C 812.471 681.240, 813.975 682.548, 815 684.750 C 815.825 686.523, 817.239 688.219, 818.142 688.520 C 819.045 688.820, 821.295 690.621, 823.142 692.522 C 825.234 694.676, 827.464 695.983, 829.059 695.989 C 830.466 695.995, 832.491 696.661, 833.559 697.468 C 834.626 698.276, 836.625 698.951, 838 698.969 C 839.375 698.987, 843.751 699.680, 847.725 700.509 C 854.492 701.921, 855.522 701.888, 864.011 699.998 C 868.994 698.888, 878.547 697.685, 885.239 697.325 C 897.066 696.689, 897.316 696.629, 894.203 695.154 C 892.441 694.320, 891 693.044, 891 692.319 C 891 691.593, 890.078 691, 888.952 691 C 887.599 691, 886.451 689.925, 885.571 687.832 C 884.547 685.395, 883.577 684.628, 881.370 684.511 C 879.791 684.427, 877.547 684.965, 876.383 685.707 C 874.482 686.918, 874.097 686.798, 872.610 684.528 C 871.699 683.137, 870.289 682, 869.477 682 C 868.665 682, 868 681.148, 868 680.107 C 868 678.582, 866.859 678.013, 862.133 677.180 C 858.906 676.612, 854.969 676.292, 853.383 676.468 C 851.797 676.645, 849.679 676.354, 848.676 675.820 C 847.223 675.048, 846.741 675.273, 846.309 676.925 C 846.011 678.066, 845.482 679.047, 845.133 679.104 C 844.785 679.162, 842.770 679.316, 840.656 679.447 C 838.543 679.577, 836.482 680.221, 836.077 680.876 C 835.672 681.532, 834.633 681.797, 833.770 681.465 C 832.554 680.999, 832.041 681.797, 831.500 685.001 C 831.115 687.277, 830.207 689.367, 829.481 689.646 C 826.231 690.893, 819.933 683.223, 821.294 679.675 C 822.177 677.375, 828.893 674.666, 830.469 675.975 C 831.581 676.897, 831.727 676.387, 831.289 673.117 C 830.762 669.190, 830.805 669.127, 834.441 668.445 C 836.468 668.065, 840.011 668.054, 842.313 668.422 C 844.616 668.789, 848.525 669.306, 851 669.569 L 855.500 670.049 851.250 667.827 C 846.254 665.216, 845.584 662.355, 849.750 661.422 C 851.263 661.083, 854.075 660.402, 856 659.909 C 857.925 659.415, 862.425 659.002, 866 658.990 C 869.575 658.979, 874.464 658.382, 876.864 657.665 L 881.227 656.360 877.952 654.773 C 876.150 653.901, 874.074 653.418, 873.338 653.701 C 872.602 653.983, 871.996 653.603, 871.992 652.857 C 871.984 651.401, 867.632 649, 865.001 649 C 864.120 649, 862.881 649.519, 862.246 650.154 C 861.612 650.788, 859.722 651.268, 858.046 651.220 C 856.096 651.165, 855 651.625, 855 652.499 C 855 654.327, 851.234 655.439, 849.610 654.091 C 848.898 653.501, 848.034 653.299, 847.689 653.644 C 847.014 654.319, 842.774 651.799, 839.581 648.824 C 838.497 647.815, 836.874 647.223, 835.973 647.509 C 835.064 647.797, 833.525 647.133, 832.513 646.014 C 830.278 643.544, 828.965 643.492, 825.873 645.750 M 811.194 674.342 C 811.464 677.131, 811.898 677.538, 814.903 677.825 C 817.112 678.036, 819.225 677.471, 820.923 676.215 C 822.361 675.152, 824.576 673.952, 825.845 673.549 C 829.626 672.349, 827.492 671.694, 818.950 671.432 L 810.887 671.184 811.194 674.342 M 208.975 677.565 C 208.439 678.976, 208 681.256, 208 682.632 C 208 684.758, 208.339 685.034, 210.250 684.468 C 212.834 683.703, 219.200 678.901, 219.727 677.319 C 220.129 676.113, 216.851 675.034, 212.725 675.014 C 210.660 675.003, 209.701 675.656, 208.975 677.565 M 836.208 692.743 C 835.216 693.090, 835.186 693.520, 836.081 694.597 C 837.485 696.289, 842.334 696.501, 841.782 694.846 C 841.303 693.408, 837.937 692.139, 836.208 692.743 M 708.813 693.683 C 709.534 693.972, 710.397 693.936, 710.729 693.604 C 711.061 693.272, 710.471 693.036, 709.417 693.079 C 708.252 693.127, 708.015 693.364, 708.813 693.683 M 844 694.926 C 844 697.995, 857.928 700.255, 863.478 698.087 C 865.360 697.351, 865.336 697.249, 862.978 695.975 C 859.657 694.180, 844 693.315, 844 694.926 M 791.218 712.173 C 791.458 712.903, 792.906 713.647, 794.436 713.827 C 796.397 714.057, 797.089 713.762, 796.782 712.827 C 796.542 712.097, 795.094 711.353, 793.564 711.173 C 791.603 710.943, 790.911 711.238, 791.218 712.173 M 765.500 715.719 C 758.213 716.215, 757.369 716.645, 759.364 718.850 C 760.264 719.844, 761 721.383, 761 722.270 C 761 724.632, 763.116 725.544, 764.181 723.640 C 764.695 722.723, 766.346 722, 767.927 722 C 771.128 722, 773.327 719.930, 772.833 717.381 C 772.441 715.362, 772.052 715.274, 765.500 715.719 M 805 730.713 C 801.109 732.154, 800.165 736, 803.703 736 C 804.521 736, 806.480 736.918, 808.056 738.040 L 810.920 740.080 813.014 737.986 C 814.165 736.835, 815.915 736.029, 816.902 736.196 C 818.926 736.539, 824 734.116, 824 732.806 C 824 731.003, 819.203 730.125, 815.522 731.255 C 812.737 732.109, 811.381 732.094, 809.935 731.192 C 807.884 729.911, 807.317 729.856, 805 730.713 M 164.604 734.832 C 164.321 735.289, 166.215 737.757, 168.813 740.315 C 173.359 744.794, 173.670 744.930, 177.159 743.966 C 181.776 742.692, 183.711 740.562, 182.060 738.573 C 179.490 735.475, 165.994 732.583, 164.604 734.832 M 215.872 737.136 C 214.567 737.501, 210.519 737.845, 206.875 737.900 C 197.809 738.037, 193.751 738.930, 194.445 740.636 C 194.750 741.386, 195.275 742.679, 195.610 743.509 C 196.102 744.724, 195.767 744.850, 193.892 744.156 C 192.192 743.527, 190.208 743.922, 186.539 745.622 C 183.775 746.903, 179.593 748.238, 177.245 748.591 C 173.085 749.214, 171.154 750.488, 172.432 751.765 C 172.779 752.112, 178.925 752.273, 186.089 752.121 C 196.328 751.904, 199.603 752.165, 201.400 753.343 C 203.270 754.568, 204.125 754.617, 206.093 753.612 C 207.417 752.936, 208.438 751.622, 208.361 750.692 C 208.285 749.761, 208.622 749, 209.111 749 C 212.659 749, 214 747.287, 214 742.755 C 214 739.390, 214.228 738.945, 215.438 739.948 C 216.929 741.186, 225.042 740.537, 228 738.943 C 229.333 738.224, 229.333 738.079, 228 737.631 C 225.342 736.738, 218.313 736.451, 215.872 737.136 M 751.768 744 C 750.898 745.393, 749.436 746, 746.951 746 C 744.988 746, 742.573 746.592, 741.584 747.315 C 739.892 748.552, 739.938 748.729, 742.358 750.315 C 746.299 752.897, 749.831 752.520, 750.606 749.434 C 751.157 747.240, 751.731 746.910, 754.571 747.154 C 758.844 747.523, 759.780 746.519, 757.506 744.006 C 755.202 741.461, 753.355 741.459, 751.768 744 M 717.223 748.169 C 717.899 750.198, 724.853 751.982, 729.569 751.336 C 734.794 750.619, 735.193 749.611, 730.851 748.098 C 726.525 746.590, 716.714 746.641, 717.223 748.169 M 803 765.843 C 803 766.353, 804.195 767.553, 805.655 768.509 C 807.989 770.039, 808.962 770.103, 813.710 769.040 C 816.977 768.309, 818.958 767.371, 818.725 766.666 C 818.260 765.259, 803 764.461, 803 765.843 M 797 768.811 C 797 770.424, 801.122 774, 802.980 774 C 805.995 774, 806.545 771.860, 804.048 769.838 C 801.767 767.991, 797 767.297, 797 768.811 M 822.654 770.679 C 822.281 771.053, 820.094 771.534, 817.794 771.748 C 812.448 772.246, 803.715 779.092, 804.222 782.386 C 804.415 783.641, 805.147 784.365, 806.024 784.166 C 806.836 783.983, 809.975 783.370, 813 782.804 C 818.559 781.765, 823 778.496, 823 775.444 C 823 774.548, 824.007 774, 825.655 774 C 828.247 774, 828.267 773.952, 826.500 772 C 824.575 769.873, 823.746 769.588, 822.654 770.679 M 763.833 775.334 C 761.577 778.135, 760.749 778.480, 756.641 778.326 C 751.480 778.133, 750.690 779.082, 754.547 780.839 C 758.479 782.631, 762.883 782.223, 766.302 779.750 C 768.013 778.513, 771.212 776.775, 773.410 775.888 C 779.167 773.567, 778.808 772.523, 772.188 772.334 C 766.784 772.179, 766.206 772.387, 763.833 775.334 M 774.857 778.873 C 772.303 780.318, 768.703 783.263, 766.857 785.417 C 765.011 787.571, 760.462 791.281, 756.750 793.660 C 751.295 797.157, 750 798.479, 750 800.552 C 750 803.232, 750.789 803.165, 754.248 800.195 C 755.808 798.855, 756.420 798.886, 759.943 800.474 C 762.114 801.453, 764.893 803.322, 766.119 804.627 C 769.086 807.785, 770.118 807.651, 776.734 803.250 C 782.411 799.474, 785.377 797.592, 792.893 793 C 796.970 790.509, 796.985 790.478, 796.992 784.309 C 796.997 780.904, 796.582 777.860, 796.071 777.544 C 795.560 777.228, 793.105 777.514, 790.616 778.180 C 786.670 779.236, 785.849 779.173, 784.216 777.695 C 781.805 775.514, 780.505 775.678, 774.857 778.873 M 826.750 776.689 C 824.107 777.380, 824.566 778.657, 829.750 785.039 C 834.793 791.247, 836.367 792.065, 837.854 789.250 C 838.800 787.460, 837.981 779.396, 836.632 777.213 C 835.908 776.042, 830.353 775.748, 826.750 776.689 M 748 783.345 C 748 786.864, 754.273 789.327, 756.800 786.800 C 758.633 784.967, 758.278 784.292, 754.851 783.098 C 750.612 781.620, 748 781.715, 748 783.345 M 730.107 791.059 C 727.951 792.855, 727.548 792.901, 726.029 791.526 C 723.956 789.650, 717.646 789.426, 718.243 791.250 C 718.468 791.938, 720.418 792.878, 722.576 793.339 C 724.734 793.800, 730.231 795.047, 734.792 796.108 L 743.083 798.039 747.542 794.971 C 753.716 790.723, 753.095 788.177, 746.605 791.134 C 744.648 792.026, 743.049 791.919, 739.120 790.634 C 732.971 788.623, 733.037 788.620, 730.107 791.059 M 710.500 796.476 C 708.850 797.265, 706.487 797.930, 705.250 797.955 C 704.013 797.980, 703 798.465, 703 799.032 C 703 800.837, 707.257 801.734, 710.743 800.664 C 713.379 799.855, 715.147 800.017, 719.071 801.428 C 721.811 802.414, 724.976 802.978, 726.104 802.683 C 727.522 802.312, 729.328 803.205, 731.949 805.573 C 736.079 809.304, 738.984 809.873, 741.429 807.429 C 743.235 805.622, 743.520 801.440, 741.905 800.441 C 739.754 799.112, 725.840 796.042, 719.724 795.547 C 715.463 795.202, 712.554 795.495, 710.500 796.476 M 350.500 877.962 C 338.350 878.465, 337.918 878.549, 343.897 879.250 C 352.034 880.204, 644.644 880.046, 648 879.085 C 649.457 878.668, 643.985 878.081, 634.882 877.678 C 617.144 876.891, 370.392 877.138, 350.500 877.962 M 719.292 890.742 C 723.027 890.935, 728.877 890.934, 732.292 890.739 C 735.706 890.545, 732.650 890.387, 725.500 890.389 C 718.350 890.390, 715.556 890.550, 719.292 890.742 M 264.500 896.121 C 256.250 896.462, 234.875 896.848, 217 896.977 C 199.125 897.106, 180.450 897.543, 175.500 897.947 L 166.500 898.683 179 898.868 C 185.875 898.969, 208.600 899.509, 229.500 900.068 C 308.375 902.177, 844.946 900.612, 842.614 898.280 C 840.608 896.275, 308.777 894.288, 264.500 896.121 M 208.832 916.926 C 180.965 917.242, 157.890 917.775, 157.555 918.111 C 155.726 919.943, 308.127 920.844, 391.942 919.497 C 428.576 918.908, 441.715 918.400, 439.942 917.640 C 437.151 916.444, 291.228 915.994, 208.832 916.926 M 591.250 916.670 C 564.372 917.396, 577.024 918.680, 618.750 919.462 C 700.864 920.999, 876.955 919.830, 855 917.892 C 846.590 917.150, 613.467 916.070, 591.250 916.670 M 351 935.008 C 340.825 935.413, 299.425 935.855, 259 935.989 C 218.575 936.124, 182.575 936.525, 179 936.881 C 170.561 937.721, 245.312 938.797, 321 938.925 C 353.725 938.981, 399.175 939.505, 422 940.091 C 462.855 941.139, 487.224 941.049, 689 939.101 C 744.825 938.562, 802.612 938.094, 817.417 938.061 C 832.221 938.027, 843.996 937.663, 843.584 937.250 C 841.918 935.583, 388.410 933.520, 351 935.008" stroke="none" fill="#000000" fill-rule="evenodd"/>
</svg>