<?xml version="1.0" encoding="UTF-8"?>
<svg version="1.1" viewBox="0 0 1024 1024" xmlns="http://www.w3.org/2000/svg">
	<path
		d="m477 68.675c-33.32 3.378-60.466 8.901-92.5 18.819-19.236 5.955-29.376 9.959-48.376 19.102-39.677 19.092-68.929 39.626-101.01 70.904-57.703 56.264-92.548 119.26-109.06 197.17-11.328 53.441-10.377 118.67 2.564 175.83 5.793 25.59 18.241 60.112 30.648 85 7.135 14.312 14.56 26.111 15.66 24.884 1.828-2.04 9.172-20.904 8.757-22.493-0.301-1.149 0.265-1.918 1.682-2.284 1.354-0.35 2.868-2.278 4.136-5.266 3.98-9.378 23.111-40.253 33.363-53.841 15.729-20.85 45.725-52.01 64.137-66.628 39.5-31.361 82.041-52.059 132-64.225 17.483-4.258 40.899-8.647 46.128-8.647 3.598 0 4.037-0.364 8.158-6.75 2.396-3.712 6.067-9.848 8.159-13.635 2.092-3.786 5.224-8.511 6.96-10.5 4.28-4.903 9.007-12.037 8.386-12.657-0.279-0.279-3.062 0.159-6.185 0.972-7.224 1.882-8.606 1.346-8.606-3.337 0-2.031-0.498-4.191-1.107-4.8s-1.415-2.612-1.791-4.45c-0.495-2.42-1.225-3.343-2.643-3.343-1.398 0-2.103-0.858-2.461-3-0.562-3.363 0.565-3.204-14.955-2.102l-9.457 0.671 2.098-2.284c1.979-2.156 13.772-20.031 16.165-24.503 0.856-1.6 0.735-2.808-0.538-5.361-1.532-3.071-1.523-3.875 0.134-11.858 2.121-10.214 5.489-21.462 6.211-20.74 0.284 0.284-0.236 3.898-1.156 8.032-1.076 4.835-1.347 8.096-0.761 9.143 0.738 1.318 1.106 1.378 1.934 0.315 2.423-3.111 5.498-9.931 8.259-18.313 5.223-15.859 9.991-28.916 11.688-32 1.812-3.294 10.342-12.5 11.583-12.5 0.428 0-0.819 2.813-2.77 6.25-8.195 14.436-21.878 45.36-24.004 54.25-0.394 1.65-2.032 5.633-3.638 8.851-3.134 6.276-3.123 7.432 0.051 5.733 1.194-0.638 2.646-3.217 3.565-6.331 2.463-8.343 4.984-11.585 11.231-14.445 4.661-2.134 6.471-2.453 10.934-1.928l5.349 0.628 1.12-4.162c4.203-15.607 26.202-13.157 27.712 3.086 0.541 5.811-2.474 10.66-8.533 13.724l-4.264 2.157 3.772 4.58c2.131 2.588 4.968 4.858 6.522 5.218 1.513 0.352 2.75 1.303 2.75 2.114 0 1.678 4.447 6.541 21.37 23.372 10.747 10.688 11.646 11.852 9.5 12.31-1.303 0.278-7.086 1.214-12.85 2.079-5.764 0.866-10.843 1.937-11.287 2.381-1.149 1.149 0.644 5.325 5.121 11.925 8.351 12.31 14.124 27.646 14.161 37.618 9e-3 2.249 0.346 4.584 0.75 5.188s3.769 1.374 7.477 1.711c10.753 0.979 38.08 7.405 52.758 12.406 33.748 11.497 66.331 28.591 94.899 49.785 14.791 10.974 22.124 17.427 39.707 34.948 21.022 20.947 32.28 34.817 46.92 57.802 4.199 6.593 7.488 10.75 8.506 10.75 1.769 0 4.968-2.997 4.968-4.654 0-1.993 4.689-5.379 7.08-5.114 1.811 0.201 2.491-0.268 2.723-1.877 0.204-1.42 1.219-2.317 3.003-2.655 1.482-0.28 4.633-1.235 7.004-2.121 3.862-1.443 4.891-1.458 9.922-0.144 3.778 0.986 6.322 2.354 7.781 4.184 1.533 1.923 2.693 2.516 3.966 2.027 1.334-0.511 2.96 0.544 6.291 4.082 2.47 2.625 4.161 4.178 3.758 3.452-0.42-0.757 0.557-3.741 2.293-7 3.965-7.445 12.087-33.893 16.564-53.937 7.407-33.165 9.958-55.615 9.969-87.743 0.027-78.721-22.327-152.15-66.403-218.12-11.647-17.432-39.295-50.447-49.637-59.273-2.098-1.79-6.064-5.394-8.814-8.009-15.006-14.267-42.079-33.717-66.5-47.775-27.155-15.632-45.113-23.716-73.794-33.218-30.919-10.244-59.252-16.025-93.706-19.118-10.153-0.911-53.429-1.132-61.5-0.314m348.67 545.99c-1.197 1.196-0.702 4.059 0.937 5.419 1.347 1.119 2.08 1.058 4.581-0.377 1.637-0.94 4.178-1.67 5.646-1.623l2.669 0.086-2.586 0.784c-3.981 1.206-7.492 3.823-8.707 6.488-1.049 2.303-0.894 2.461 3.303 3.356 2.422 0.516 5.54 0.722 6.929 0.456 1.958-0.374 2.745 0.048 3.509 1.881 1.565 3.759 3.473 5.68 6.364 6.405 1.949 0.489 2.688 0.294 2.688-0.712 0-0.762 1.575-4.673 3.5-8.69 1.925-4.016 3.5-7.716 3.5-8.221 0-0.506-3.803-0.919-8.45-0.919-6.432 0-8.649-0.355-9.281-1.484-1.14-2.036-13.085-4.367-14.602-2.849m-8.429 2.165c-1.549 0.983-0.526 7.282 1.14 7.022 0.617-0.096 2.389 0.347 3.937 0.986 3.706 1.527 4.685 1.463 4.685-0.305 0-1.825-5.797-8.54-7.354-8.52-0.63 9e-3 -1.714 0.376-2.408 0.817m11.819 22.302c0.063 1.51 9.724 9.87 11.393 9.859 1.192-8e-3 5.55-6.051 5.55-7.698 0-1.543-1.963-2.108-9.954-2.862-5.627-0.531-7.034-0.39-6.989 0.701m-83.057 33.366c-1.925 1.312-4.036 2.411-4.691 2.442-1.957 0.095-2.501 1.935-0.581 1.965 0.975 0.015 6.973 0.163 13.329 0.329l11.557 0.301 3.049 3.412c2.925 3.273 3.179 3.359 6.219 2.1 3.37-1.396 5.075-0.598 9.225 4.319 0.884 1.048 2.988 2.014 4.674 2.146 3.846 0.303 8.793 3.762 10.727 7.501 1.087 2.102 2.334 2.94 4.722 3.171 2.379 0.23 3.78 1.167 5.257 3.514 1.41 2.241 2.552 3.04 3.811 2.667 0.989-0.293 2.449 8e-3 3.245 0.668 0.795 0.661 2.435 0.943 3.643 0.627 1.631-0.427 3.059 0.313 5.545 2.873 2.763 2.844 4.021 3.421 7.193 3.297 3.771-0.148 3.829-0.208 2.991-3.127-0.469-1.637-0.98-3.036-1.134-3.109-0.155-0.073-2.624-2.262-5.488-4.864-3.928-3.57-5.993-4.732-8.404-4.732-2.465 0-4.071-0.947-7.019-4.14-3.766-4.08-3.9-4.132-9.096-3.528-5.942 0.691-6.648 0.384-8.818-3.832-1.153-2.239-2.261-3.01-4.371-3.04-2.642-0.038-5.83-2.694-6.828-5.69-0.237-0.711-1.904-1.102-4.079-0.955-2.705 0.182-3.678-0.147-3.678-1.245 0-1.646-7.109-4.148-10.675-3.757-1.196 0.132-2.46-0.223-2.809-0.787-0.879-1.423-5.854-1.288-7.341 0.199-0.967 0.967-1.639 0.967-3.186 0-2.554-1.595-2.858-1.54-6.989 1.275m-552.55 17.581c-0.368 0.595-1.697 0.823-2.954 0.507-1.258-0.315-3.906 0.103-5.886 0.931-2.897 1.21-3.984 1.264-5.563 0.278-1.66-1.037-2.336-0.874-4.39 1.056-1.917 1.8-3.136 2.153-5.793 1.672-3.029-0.547-3.601-0.255-5.743 2.934-1.308 1.947-3.136 3.541-4.062 3.541s-2.615 1.261-3.754 2.801c-1.184 1.602-3.941 3.404-6.438 4.208-3.953 1.274-5.809 2.55-5.852 4.023-0.04 1.384 5.504 0.744 8.998-1.039 2.149-1.096 4.425-1.993 5.058-1.993s4.086-2.053 7.675-4.561c4.554-3.184 7.341-4.476 9.226-4.278 1.485 0.156 3.884-0.492 5.329-1.439 3.197-2.094 4.639-2.153 7.289-0.297 2.567 1.798 3.661 1.074 5.93-3.925 0.999-2.2 1.992-4.337 2.207-4.75 0.612-1.174-0.53-0.878-1.277 0.331m6.987 2.219c-0.825 0.459-1.437 2.296-1.437 4.312v3.512l5.75-0.152c10.214-0.269 18.458 2.814 20.27 7.58 0.971 2.553 2.423 3.158 3.48 1.448 1.133-1.834 2.982-1.02 4.754 2.094 1.631 2.866 2.031 3.034 5.75 2.405 3.205-0.541 3.996-0.374 3.996 0.846 0 1.593 3.692 3.296 4.782 2.206 0.955-0.954-2.311-5.899-4.729-7.162-1.17-0.611-3.153-2.073-4.405-3.25-1.252-1.176-2.855-2.139-3.561-2.139-0.707 0-2.522-1.324-4.033-2.943-1.512-1.618-4.055-3.266-5.652-3.661-1.596-0.396-3.48-1.532-4.186-2.526-0.946-1.33-2.063-1.651-4.235-1.216-2.103 0.42-3.116 0.159-3.526-0.91-0.424-1.105-2.023-1.466-6.078-1.372-3.027 0.07-6.15 0.488-6.94 0.928m554.06 2.713c-5.206 3.102-6.067 3.223-21.234 2.984l-8.235-0.131-1.701 3.567c-1.762 3.697-2.104 3.889-6.426 3.614-1.814-0.116-3.118 0.631-4.328 2.478-1.598 2.439-1.868 2.521-3.483 1.059-2.806-2.54-9.093-1.809-9.093 1.057 0 0.784-1.527 2.327-3.393 3.428s-3.623 2.886-3.906 3.966c-0.34 1.299-1.37 1.965-3.04 1.965-1.588 0-2.746 0.693-3.119 1.866-0.325 1.027-2.425 3.737-4.665 6.022l-4.074 4.156 5.07-0.18c4.693-0.166 5.259-0.465 7.613-4.022 1.973-2.982 3.189-3.842 5.429-3.842s3.351-0.785 4.952-3.5c2.253-3.818 2.613-3.917 8.911-2.464 3.347 0.772 4.913 0.658 7.2-0.525 1.608-0.831 4.085-1.511 5.506-1.511 1.618 0 3.889-1.307 6.083-3.5 1.925-1.925 4.324-3.5 5.331-3.5 1.008 0 3.083-0.984 4.611-2.186 2.668-2.098 2.896-2.118 5.716-0.5 3.561 2.044 4.775 2.124 4.775 0.316 0-0.891 1.649-1.556 4.717-1.902 2.595-0.292 4.875-1.003 5.067-1.579 0.95-2.85 4.592-6.149 6.789-6.149 2.914 0 3.169-1.533 0.493-2.965-3.177-1.7-6.285-1.168-11.566 1.978m36.718 17.16c0.24 0.73 1.688 1.474 3.218 1.654 1.961 0.23 2.653-0.065 2.346-1-0.24-0.73-1.688-1.474-3.218-1.654-1.961-0.23-2.653 0.065-2.346 1m-27.968 3.548c-5.442 0.398-6.309 1.155-3.75 3.279 0.825 0.685 1.5 2.063 1.5 3.063 0 2.594 2.087 3.538 3.512 1.59 0.665-0.909 2.284-1.66 3.598-1.668 3.516-0.023 5.109-1.403 4.727-4.098-0.369-2.615-1.122-2.785-9.587-2.166m39.973 15.836c-2.944 2.061-2.804 3.272 0.525 4.537 1.512 0.575 3.504 1.729 4.429 2.566 1.984 1.796 5.823 0.94 5.823-1.299 0-1.003 0.789-1.401 2.369-1.194 2.464 0.323 7.631-1.912 7.631-3.301 0-2.138-4.304-3.041-8.671-1.818-3.334 0.933-4.723 0.958-5.584 0.097-1.579-1.579-3.889-1.433-6.522 0.412m-51.907 12.343c-0.362 1.383-1.396 1.9-3.804 1.9-1.818 0-4.253 0.3-5.409 0.667-2.365 0.751-2.886 3.533-0.662 3.533 0.793 0 1.684 0.393 1.981 0.873 0.296 0.48-1.365 0.872-3.691 0.871-2.327-1e-3 -7.156 0.324-10.731 0.722-7.316 0.815-9.082 0.279-16.359-4.965-5.37-3.869-8.948-4.375-12.64-1.789l-2.444 1.711 2.472 0.613c2.286 0.567 2.067 0.832-2.91 3.538-16.055 8.729-27.132 17.881-35.612 29.426-5.431 7.392-11.507 19.36-11.507 22.663 0 1.22-0.45 2.497-1 2.837-1.314 0.812-1.285 4.206 0.043 5.027 0.574 0.354 2.649-0.632 4.611-2.191 1.962-1.56 4.98-3.862 6.707-5.117l3.139-2.281 1.822 2.231c1.496 1.831 2.122 2.017 3.5 1.041 0.923-0.654 3.478-2.145 5.678-3.312 2.2-1.168 4.9-2.914 6-3.88 1.1-0.965 3.237-2.048 4.75-2.406 5.904-1.396 1.004-5.169-5.325-4.099-3.498 0.591-3.941 0.436-4.075-1.425-0.082-1.148-0.195-2.58-0.25-3.181s1.644-1.692 3.775-2.425c5.77-1.984 6.603-3.228 3.654-5.457l-2.471-1.867 2.721-1.239c1.952-0.89 2.721-1.979 2.721-3.857 0-4.142 2.628-6.979 7.133-7.699 2.948-0.472 4.257-1.26 4.9-2.95 0.627-1.649 1.957-2.484 4.672-2.931 2.087-0.344 4.712-1.069 5.833-1.61 1.36-0.656 2.969-0.63 4.834 0.079 1.538 0.585 3.177 0.828 3.643 0.54s1.141-0.048 1.5 0.533c1.556 2.518 8.562 5.995 10.899 5.408 1.32-0.331 3.418-0.057 4.663 0.609 1.997 1.069 2.489 0.902 4.177-1.415 1.267-1.739 2.846-2.626 4.674-2.626 2.681 0 6.072-2.611 6.072-4.676 0-0.56-1.013-1.507-2.25-2.104-2.244-1.082-2.243-1.085 0.339-1.152 1.786-0.047 2.96-0.881 3.783-2.686 1.015-2.228 1.642-2.529 4.199-2.018 3.43 0.686 4.988-1.383 2.918-3.877-1.796-2.164-6.068-1.9-6.673 0.413m-514.32-0.3c-3.5 0.626-10.877 2.421-14.828 3.607l-3.328 1 2.828 1.471c1.917 0.997 5.126 1.376 9.961 1.177 4.135-0.171 7.707 0.166 8.5 0.803 0.752 0.603 2.379 1.408 3.617 1.787 4.37 1.34 2.146 2.305-6.947 3.017-7.478 0.584-9.395 0.448-10.256-0.728-2.322-3.176-21.547 0.525-21.547 4.147 0 1.14 10.627 8.119 12.362 8.119 0.766 0 1.965-0.689 2.664-1.532 0.746-0.898 2.762-1.494 4.873-1.44 1.98 0.051 6.782-0.362 10.671-0.918 7.817-1.117 12.209-0.834 15.65 1.008 1.254 0.671 2.393 1.144 2.53 1.051 0.992-0.67 2.214 0.144 2.75 1.831 0.39 1.229 1.513 2 2.912 2 1.253 0 3.093 0.9 4.088 2 1.09 1.204 3.08 2 5.002 2 1.756 0 4.219 0.891 5.474 1.979 1.255 1.089 2.658 1.747 3.117 1.463 0.46-0.283 1.982 1.301 3.384 3.521 2.902 4.598 4.383 4.905 9.228 1.91 2.552-1.577 3.732-1.836 4.568-1 1.54 1.54 4.456 1.418 5.427-0.227 0.44-0.745 1.812-1.886 3.05-2.535 1.238-0.65 2.25-1.728 2.25-2.396 0-2.489 6.346-6.389 9.973-6.131 1.91 0.136 4.273-0.18 5.25-0.703s1.777-0.57 1.777-0.104c0 1.709 6.584 5.651 9.498 5.687 2.487 0.03 3.054 0.488 3.307 2.669 0.168 1.448 1.217 3.473 2.332 4.5s3.295 3.104 4.846 4.617c1.554 1.515 3.942 2.75 5.32 2.75 1.88 0 2.761 0.745 3.547 3 1.16 3.327 2.288 3.719 4.46 1.548 0.798-0.799 1.73-1.174 2.071-0.834 1.562 1.562 0.405-3.757-1.266-5.821-1.544-1.906-2.155-2.105-3.372-1.094-1.239 1.028-1.695 0.731-2.736-1.783-0.687-1.659-1.668-3.016-2.179-3.016-0.512 0-1.563-1.515-2.337-3.367-1.034-2.474-2.212-3.527-4.449-3.975-1.675-0.335-3.042-1.246-3.042-2.027 0-2.392-6.079-8.163-8.219-7.804-1.071 0.18-2.537-0.478-3.256-1.462-1.073-1.468-1.581-1.563-2.825-0.531-0.833 0.692-3.306 1.152-5.493 1.023-3.236-0.191-4.419 0.269-6.343 2.466-1.438 1.642-3.649 2.841-5.644 3.061-1.804 0.198-4.085 1.089-5.068 1.978-1.675 1.516-2.089 1.269-6.555-3.904-5.224-6.051-12.374-11.757-20.067-16.017-9.246-5.118-29.314-9.311-37.53-7.841m448.51 3.389c-0.35 0.566 0.051 0.734 0.941 0.393 1.732-0.665 2.049-1.382 0.611-1.382-0.518 0-1.216 0.445-1.552 0.989m35.165-0.015-5.829 0.526 3.329 1.971c3.35 1.984 13.847 2.843 15.428 1.262 2.031-2.031-6.048-4.381-12.928-3.759m-517.65 3.704c-3.184 1.386-3.328 1.624-1.703 2.812 2.906 2.126 8.886-0.733 7.209-3.446-0.799-1.293-1.183-1.248-5.506 0.634m-15.891 13.406c-4.494 3.22-9.61 7.198-11.367 8.84l-3.196 2.987 2.293 2.44c2.053 2.185 2.18 2.842 1.221 6.294-1.866 6.724-1.368 10.673 1.794 14.215l2.875 3.22 3.466-2.045 3.465-2.045 1.815 2.005c2.22 2.454 5.078 2.589 6.358 0.301 0.811-1.449 1.35-1.524 3.597-0.5 3.834 1.746 5.639 1.507 9.764-1.296 3.819-2.595 6.703-3.148 8.335-1.598 0.572 0.544 3.137-0.126 6.45-1.685l5.5-2.586-5.5-0.576c-3.025-0.317-6.149-0.989-6.942-1.493-0.793-0.505-5.068-1.286-9.5-1.736-17.745-1.803-21.185-3.095-14.36-5.393 3.087-1.039 4.112-2.153 5.177-5.628 0.66-2.152 6.724-3.357 9.478-1.884 1.7 0.91 2.246 0.762 3.105-0.843 2.573-4.807 0.686-7.285-10.557-13.864l-5.098-2.984-8.173 5.854m616.96 0.718c-1.974 0.658-1.144 2.854 1.544 4.078 2.704 1.233 9.801 0.704 12.439-0.927 2.584-1.597-0.58-3.127-6.874-3.326-3.309-0.104-6.508-0.025-7.109 0.175m-7.093 3.975c0 0.428 0.719 1.804 1.597 3.058 1.114 1.591 2.395 2.186 4.241 1.972 3.529-0.41 3.915-3.143 0.654-4.629-2.942-1.34-6.492-1.559-6.492-0.401m20.842 2.607c-7.045 1.516-13.63 6.716-13.757 10.866-0.099 3.193-0.585 3.141 8.415 0.89 6.126-1.533 7.302-2.213 9.418-5.446 1.359-2.077 3.235-3.694 4.285-3.694 1.557 0 1.69-0.332 0.797-2-1.213-2.267-1.415-2.281-9.158-0.616m-53.901 3.747c-2.341 2.843-6.145 3.925-9.816 2.793-2.614-0.806-2.278 2.067 0.359 3.07 4.361 1.658 9.03 1.177 12.08-1.244 1.558-1.237 4.619-2.925 6.802-3.75 5.856-2.213 5.45-3.476-1.178-3.666-5.314-0.152-6.012 0.084-8.247 2.797m10.979 3.348c-2.519 1.313-5.82 4.012-7.335 5.999-1.515 1.986-5.979 5.738-9.92 8.338-5.749 3.792-7.23 5.291-7.494 7.585l-0.329 2.86 3.329-2.023c3.963-2.409 5.995-1.874 12.197 3.207l4.213 3.453 4.323-2.455c2.377-1.351 5.656-3.578 7.286-4.949 1.63-1.372 3.378-2.494 3.884-2.494 1.033 0 11.076-6.945 12.057-8.338 0.868-1.231-0.05-10.953-1.139-12.057-0.519-0.527-2.768-0.368-5.458 0.386-4.004 1.121-4.802 1.076-6.384-0.355-2.368-2.144-3.737-2.019-9.23 0.843m51.33-1.817c-2.162 0.873-1.392 2.791 3.373 8.398 5.394 6.348 6.256 6.826 8.002 4.439 1.424-1.948 0.838-10.061-0.886-12.249-0.955-1.213-7.965-1.606-10.489-0.588m-662.21 6.923c-3.697 3.341-3.978 3.903-2.625 5.255 2.446 2.447 6.322 0.095 7.154-4.341 0.371-1.976 0.435-3.831 0.143-4.123s-2.394 1.152-4.672 3.209m583.96-0.24c0 3.519 6.273 5.982 8.8 3.455 1.833-1.833 1.478-2.508-1.949-3.702-4.239-1.478-6.851-1.383-6.851 0.247m-28.305 6.355c-2.926 0.758-1.352 2.736 2.881 3.62 2.158 0.451 7.706 1.702 12.328 2.78l8.403 1.959 3.824-2.65c5.426-3.76 6.663-5.409 4.057-5.409-1.132 0-3.178 0.426-4.548 0.947-1.756 0.667-4.146 0.475-8.112-0.653-5.411-1.539-5.727-1.523-8.369 0.43-2.692 1.99-2.79 1.993-5.063 0.153-1.275-1.032-2.605-1.825-2.957-1.761-0.351 0.064-1.451 0.327-2.444 0.584m-10.425 6.754c-3.427 1.125-6.239 2.398-6.25 2.828-0.041 1.599 4.382 2.333 8.091 1.343 3.166-0.845 4.488-0.692 7.61 0.883 2.111 1.065 5.262 1.774 7.138 1.608 2.647-0.234 4.051 0.374 6.628 2.872 4.193 4.063 8.478 3.938 9.956-0.291 1.906-5.45 0.152-6.331-19.943-10.008-6.405-1.171-7.53-1.106-13.23 0.765m-356.77 81.501c-9.627 0.477-10.459 0.651-6.667 1.397 6.169 1.213 298.46 1.146 300.63-0.069 1.198-0.671-2.986-1.168-13.737-1.631-17.938-0.774-263.86-0.507-280.22 0.303m38.484 11.35c-0.284 0.308-22.784 0.638-50 0.732-27.216 0.095-52.409 0.442-55.984 0.772l-6.5 0.601 5 1.199c3.451 0.827 4.225 1.264 2.5 1.41-1.871 0.158-1.494 0.416 1.5 1.025 2.2 0.447 97.825 0.899 212.5 1.004 114.68 0.104 210.03 0.249 211.9 0.321 1.933 0.074 3.59-0.409 3.833-1.119 0.236-0.687-0.284-1.25-1.155-1.25s-1.583-0.45-1.583-1 0.54-1 1.2-1c0.837 0 0.883-0.317 0.151-1.049-1.105-1.105-322.36-2.74-323.37-1.646m-116.17 6.378c0.721 0.289 1.584 0.253 1.916-0.079s-0.258-0.568-1.312-0.525c-1.165 0.048-1.402 0.285-0.604 0.604m71.821 5.075c-48.536 0.221-56.695 0.463-55.706 1.655 0.978 1.179-1.03 1.509-12.885 2.12-7.724 0.398-14.043 1.038-14.043 1.423 0 0.759 14.758 2.58 33 4.071 6.325 0.517 22.3 0.952 35.5 0.967 28.809 0.031 71.827 1.695 76 2.94 2.717 0.81 2.482 0.918-2.5 1.153-5.724 0.269 10.529 1.469 25 1.845 4.894 0.127 6.805 0.471 5.5 0.99-1.1 0.438-22.813 1.058-48.251 1.379-25.438 0.32-46.708 0.865-47.267 1.21-0.558 0.345-0.756 1.046-0.439 1.558 0.351 0.569-14.728 0.932-38.734 0.933-41.189 3e-3 -83.196 0.945-82.295 1.845 0.291 0.291 30.331 0.847 66.757 1.237 59.487 0.636 69.181 0.971 95.229 3.297 15.95 1.424 30.8 3.134 33 3.8 5.34 1.617 187.85 1.602 189.8-0.015 2.01-1.668 31.223-5.038 53.2-6.138 11-0.55 44.975-1.01 75.5-1.021 30.525-0.012 58.65-0.356 62.5-0.764l7-0.743-10-0.529c-5.5-0.29-36.985-0.64-69.966-0.776-50.651-0.21-60.313-0.475-62.199-1.711-1.792-1.174-9.778-1.65-40.385-2.407-38.546-0.954-50.522-1.973-25.867-2.201 14.64-0.136 30.472-1.365 23.417-1.818-2.2-0.142-5.125-0.586-6.5-0.988-3.904-1.142 15.799-2.104 63-3.077 23.375-0.482 44.3-1.309 46.5-1.839 2.2-0.529 8.05-1.319 13-1.756l9-0.794-9.5-0.838c-5.225-0.46-14.225-1.179-20-1.597l-10.5-0.759 6.795-0.827c3.738-0.454 6.595-1.027 6.349-1.272-0.514-0.514-284.05-0.939-369.01-0.553m345.12 34.948c1.237 0.238 3.263 0.238 4.5 0 1.237-0.239 0.225-0.434-2.25-0.434s-3.487 0.195-2.25 0.434m16.519-0.013c0.973 0.254 2.323 0.237 3-0.037s-0.119-0.481-1.769-0.461-2.204 0.244-1.231 0.498m18.544-0.01c0.721 0.289 1.584 0.253 1.916-0.079s-0.258-0.568-1.312-0.525c-1.165 0.048-1.402 0.285-0.604 0.604m12 0c0.721 0.289 1.584 0.253 1.916-0.079s-0.258-0.568-1.312-0.525c-1.165 0.048-1.402 0.285-0.604 0.604m24.456 0.01c0.973 0.254 2.323 0.237 3-0.037s-0.119-0.481-1.769-0.461-2.204 0.244-1.231 0.498m-376.44 12.307c-56.709 0.842-41.035 2.922 23.572 3.128 22.053 0.07 48.421 0.439 58.596 0.82 18.087 0.677 18.243 0.701 7 1.08-6.325 0.214-14.875 0.414-19 0.446-29.873 0.226-46.149 0.808-43 1.537 13.227 3.061 131.41 4.069 168.36 1.436 19.552-1.394 24.64-2.358 13.552-2.569-3.529-0.068-10.467-0.283-15.417-0.479s-21.15-0.419-36-0.496-25.65-0.483-24-0.903 22.615-0.817 46.589-0.882c52.37-0.142 85.018-1.101 79.911-2.347-3.896-0.951-207.44-1.554-260.17-0.771m45.242 17.226c-27.323 0.456-43.805 1.105-44.45 1.75-0.699 0.699 37.212 1.004 119.43 0.961 66.247-0.035 119.55-0.428 118.45-0.873-2.776-1.123-96.758-3.274-126-2.884-13.2 0.176-43.542 0.647-67.426 1.046"
		fill="#f00" fill-rule="evenodd" />
	<path
		d="m503.25 264.93c-8.649 6.265-10.833 10.621-21.153 42.19-1.55 4.741-4.1 11.154-5.668 14.25-6.277 12.397-6.59 2.408-0.47-15.004 1.107-3.15 1.863-5.877 1.679-6.06-0.906-0.907-7.129 14.954-9.217 23.493-2.809 11.487-3.033 16.869-0.803 19.332 1.512 1.671 1.268 2.345-3.648 10.079-2.898 4.558-7.254 11.16-9.68 14.671l-4.412 6.383 9.809-0.699c5.396-0.384 10.71-0.782 11.81-0.883 1.57-0.144 2.067 0.509 2.312 3.043 0.255 2.644 0.707 3.186 2.5 3 1.754-0.182 2.254 0.368 2.522 2.773 0.183 1.65 1.008 3.752 1.833 4.671 0.876 0.976 1.361 3.012 1.167 4.891-0.495 4.776 1.76 5.769 8.33 3.668 2.903-0.928 5.597-1.36 5.987-0.959 0.389 0.401-1.287 3.429-3.725 6.729-10.488 14.196-24.165 37.059-28.714 48-2.058 4.95-3.735 9.372-3.727 9.827 0.016 0.877-4.223 11.137-12.052 29.173-2.627 6.05-5.567 13.025-6.534 15.5s-2.838 5.939-4.157 7.697l-2.399 3.198 2.078 10.192c2.578 12.638 2.603 11.862-0.532 16.481-2.221 3.273-2.426 4.144-1.372 5.832 1.079 1.726 0.878 2.272-1.552 4.209-3.058 2.439-12.708 7.391-14.402 7.391-0.585 0-1.063-0.659-1.063-1.465 0-1.301-2.837-3.535-4.491-3.535-0.342 0-1.936 1.439-3.542 3.197l-2.921 3.198-11.672-5.765c-9.053-4.471-11.863-5.469-12.523-4.448-0.646 1.001-0.986 0.829-1.41-0.712-0.308-1.117-2.895-3.32-5.75-4.896s-7.33-4.375-9.943-6.22c-2.614-1.845-4.967-3.354-5.23-3.354-0.899 0-4.518 7.919-4.518 9.887 0 1.894 2.107 3.418 15.369 11.113 9.455 5.486 11.5 6.57 21.083 11.175l9.953 4.783-0.281 4.574c-0.419 6.811 2.935 9.207 6.581 4.699 1.029-1.273 1.773-0.896 5.128 2.595 2.158 2.246 4.193 3.815 4.521 3.486 0.329-0.328 1.357 0.03 2.284 0.795 1.31 1.082 1.781 1.114 2.108 0.143 0.599-1.779 2.926-1.548 3.659 0.363 0.449 1.17 0.965 1.325 1.881 0.565 0.713-0.592 3.134-0.797 5.564-0.471 4.082 0.547 4.424 0.856 6.725 6.059 1.334 3.016 2.425 5.612 2.425 5.769 0 0.493-12.189 7.96-19.5 11.945-3.85 2.098-11.05 6.054-16 8.791-4.95 2.736-11.25 6.218-14 7.736-9.301 5.136-42.903 21.793-59.5 29.495-28.8 13.366-63.828 26.76-84.5 32.311-6.203 1.666-7.035 2.175-7.311 4.473-0.187 1.568 0.459 3.362 1.635 4.538 1.719 1.719 2.567 1.833 7.31 0.983 6.957-1.246 30.966-9.255 46.866-15.632 39.252-15.744 77.2-34.252 126.84-61.862 11.186-6.222 20.784-11.313 21.329-11.313 0.614 0 0.764 2.383 0.395 6.25-0.779 8.142-5.06 82.642-7.026 122.25-0.846 17.05-1.679 33.587-1.851 36.75s-0.284 5.75-0.249 5.75 3.591-0.675 7.902-1.5 8.248-1.5 8.75-1.5 0.912 2.505 0.912 5.567c0 4.848 0.226 5.496 1.75 5.012 2.482-0.787 17.691-3.386 18.041-3.083 0.608 0.528-5.023 6.504-6.13 6.506-0.639 1e-3 -4.73 1.84-9.092 4.086-15.39 7.925-23.467 10.127-26.686 7.275-1.452-1.286-1.683-1.016-2.268 2.642-0.789 4.936-1.862 4.587-7.135-2.324-2.022-2.65-3.875-4.62-4.117-4.377-0.243 0.242 0.232 2.393 1.054 4.779 0.822 2.387 1.402 4.406 1.289 4.488s-2.931 0.421-6.261 0.753c-5.807 0.58-6.122 0.493-7.669-2.11-0.888-1.493-3.076-4.064-4.863-5.714l-3.249-3 2.239 3.734c2.767 4.611 2.476 8.141-0.708 8.593-1.268 0.179-2.851-0.126-3.518-0.68-0.844-0.701-1.966-0.427-3.695 0.901-3.291 2.529-3.792 2.441-4.166-0.737-0.303-2.581-0.388-2.618-2.092-0.903-1.644 1.654-1.959 1.668-4.215 0.19-3.195-2.094-3.776-2.016-3.009 0.402 0.797 2.512-0.663 2.583-2.875 0.139-0.926-1.024-3.499-2.68-5.718-3.681-3.347-1.509-3.939-2.196-3.477-4.034 0.36-1.437 0.031-2.417-0.937-2.788-0.821-0.315-1.493-1.712-1.493-3.105 0-2.28-0.391-2.531-3.941-2.531-2.168 0-4.237-0.479-4.599-1.065-0.433-0.701-1.288-0.496-2.496 0.598-2.119 1.917-3.964 1.2-3.964-1.542 0-2.246-2.576-3.915-5.046-3.269-1.155 0.302-1.99-0.259-2.425-1.631-0.365-1.15-1.049-2.091-1.52-2.091-0.47 0-2.24-1.165-3.932-2.589-2.188-1.841-3.077-3.463-3.077-5.616 0-2.765-0.239-2.982-2.75-2.5-2.099 0.403-3.697-0.245-6.75-2.739-2.923-2.387-4.538-3.071-6-2.538-1.1 0.401-3.396 0.564-5.103 0.364-2.16-0.254-3.65 0.24-4.905 1.627-0.991 1.095-2.59 1.991-3.553 1.991-1.23 0-1.603 0.567-1.254 1.904 0.344 1.313-0.151 2.109-1.595 2.567-1.151 0.366-2.557 1.534-3.126 2.597-1.178 2.201-3.148 2.458-5.859 0.766-1.525-0.953-2.371-0.77-4.621 1-3.996 3.143-6.232 2.762-8.218-1.403-1.166-2.444-2.558-3.739-4.42-4.112-1.495-0.299-2.958-1.168-3.251-1.931-0.324-0.846-2.012-1.388-4.323-1.388-2.708 0-4.148-0.571-5.04-2-0.771-1.235-2.332-2-4.08-2-2.049 0-3.145-0.69-3.97-2.5-0.655-1.438-1.978-2.5-3.114-2.5-1.085 0-3.078-0.503-4.427-1.118-1.816-0.827-4.754-0.815-11.298 0.048-4.863 0.641-10.464 1.129-12.444 1.086-2.098-0.046-4.132 0.56-4.873 1.452-0.699 0.843-1.898 1.532-2.664 1.532-1.653 0-12.362-6.953-12.362-8.027 0-3.627 19.239-7.396 21.559-4.223 0.879 1.202 2.804 1.334 10.756 0.738 9.761-0.732 12.157-1.786 6.754-2.973-1.612-0.354-3.459-1.28-4.105-2.058-0.873-1.052-3.106-1.328-8.698-1.077-5.105 0.23-8.44-0.119-10.375-1.084-5.966-2.977-4.746-4.36 6.929-7.856 8.026-2.404 9.771-2.628 12.571-1.616 4.361 1.577 10.105 1.488 11.487-0.177 0.648-0.781 4.189-1.615 8.373-1.971 11.396-0.97 14.004-1.664 12.602-3.354-0.649-0.781-3.147-2.317-5.551-3.412-2.403-1.095-4.135-2.372-3.847-2.837 0.859-1.39-2.212-3.285-4.266-2.633-2.723 0.864-5.189-0.34-5.189-2.534 0-1.132-1.293-2.503-3.25-3.448-6.633-3.202-7.75-3.963-7.75-5.283 0-1.018-0.969-1.187-3.935-0.686-3.664 0.619-4.043 0.453-5.525-2.412-1.702-3.29-3.335-3.836-5.465-1.827-1.062 1.001-1.421 0.988-1.806-0.067-2.006-5.498-10.358-9.243-21.269-9.535-5.439-0.146-5.503-0.184-5.813-3.398-0.173-1.788 0.096-3.25 0.597-3.25 0.5 0 1.991-0.945 3.313-2.1s5.103-3.458 8.403-5.117 7.954-4.602 10.341-6.541c3.683-2.991 5.428-3.647 11.5-4.328 9.109-1.02 18.659-3.538 18.659-4.919 0-0.425-1.53-1.059-3.4-1.41-1.869-0.351-3.939-1.289-4.6-2.085s-2.716-1.731-4.568-2.079c-1.852-0.347-4.53-1.709-5.951-3.026s-2.847-2.395-3.168-2.395-1.626-1.125-2.901-2.5c-1.632-1.762-3.364-2.5-5.864-2.5-1.952 0-3.548-0.374-3.548-0.831s-1.125-1.433-2.5-2.169c-5.443-2.913-2.23-5.366 8.639-6.595 4.415-0.5 5.727-0.939 4.343-1.453-1.869-0.695-1.879-0.779-0.165-1.477 1.025-0.418 2.311-0.247 2.95 0.392 1.772 1.772 6.197 1.332 8.733-0.867 1.374-1.192 3.759-2.006 5.903-2.015 1.978-9e-3 4.272-0.452 5.097-0.985 1.167-0.754 0.885-0.973-1.271-0.985-2.525-0.014-9.26-3.646-12.56-6.772-0.731-0.694-1.762-0.995-2.29-0.668-0.527 0.326-1.892-0.594-3.033-2.043-1.936-2.462-2.193-2.528-3.878-1.003-1.678 1.519-1.952 1.487-3.887-0.448-1.144-1.144-2.574-2.081-3.177-2.081-0.602 0-2.387-0.92-3.967-2.045-2.687-1.913-3.029-1.941-5.333-0.431-1.354 0.887-4.164 1.771-6.244 1.965-2.781 0.258-4.458 1.181-6.341 3.488-1.691 2.072-3.106 2.927-4.169 2.519-1.015-0.39-2.3 0.255-3.48 1.746-1.902 2.405-4.751 4.04-8.07 4.633-0.385 0.069-0.206 0.619 0.397 1.222s3.956 1.502 7.45 1.998 8.262 1.186 10.595 1.533c2.804 0.416 4.761 0.199 5.774-0.641 0.843-0.7 1.689-1.095 1.88-0.88 0.83 0.938 1.531 9.486 0.852 10.393-1.583 2.116-5.288 3.442-8.066 2.886-2.408-0.481-2.997-0.201-3.483 1.657-0.499 1.908-1.078 2.157-3.934 1.694-2.66-0.432-3.824-0.05-5.662 1.86-1.272 1.321-2.862 2.403-3.534 2.403-0.671 0-2.247 1.092-3.501 2.428-1.255 1.335-2.867 2.202-3.584 1.927-0.719-0.275-1.591 0.407-1.945 1.522-0.621 1.957-3.383 3.489-5.241 2.908-0.5-0.157-2.009 0.874-3.354 2.29-1.344 1.415-3.231 2.864-4.194 3.218-3.504 1.29-1.651 2.707 3.54 2.707 2.909 0 7.972 0.707 11.25 1.572 3.278 0.864 8.885 1.462 12.46 1.328s8.019-0.166 9.875-0.072c3.249 0.166 3.351 0.293 2.737 3.422-0.754 3.836-3.263 6.025-6.265 5.466-1.763-0.329-2.575 0.52-4.489 4.691-2.931 6.387-3.443 6.734-6.979 4.727-2.681-1.522-3.091-1.514-5.96 0.116-1.695 0.962-4.585 1.75-6.423 1.75-1.962 0-4.51 0.929-6.169 2.25-5.389 4.289-9.253 6.75-10.599 6.75-0.744 0-3.215 0.9-5.492 2-4.798 2.318-6.227 2.489-6.258 0.75-0.012-0.687-0.888-0.125-1.946 1.25-1.54 2.001-2.174 2.251-3.178 1.25-1.865-1.859-2.794-1.538-3.891 1.347-0.543 1.428-1.882 2.83-2.975 3.116s-2 1.255-2.014 2.154c-0.015 0.935-1.831 2.459-4.25 3.565-2.323 1.063-4.79 2.72-5.483 3.682-0.692 0.962-2.267 1.91-3.5 2.106-1.232 0.197 2.034 0.732 7.259 1.189 6.476 0.567 8.863 1.089 7.5 1.641-2.633 1.066-2.819 1.04 10.838 1.481 10.484 0.338 12.333 0.672 16.176 2.925 2.387 1.398 5.297 3.76 6.468 5.248l2.127 2.705-2.304 1.737c-1.596 1.203-2.338 2.832-2.411 5.296l-0.106 3.558 5.106 0.185c2.808 0.102 9.606 0.057 15.106-0.1 9.002-0.256 10.25-0.071 12.5 1.853 1.375 1.176 5.313 3.958 8.752 6.184 6.55 4.239 8.258 7.121 6.342 10.702-0.926 1.73-1.469 1.861-3.908 0.94-4.309-1.626-7.95-0.264-9.553 3.573-0.983 2.352-2.328 3.573-4.678 4.247-1.814 0.52-3.464 1.443-3.666 2.05-0.376 1.128 2.985 1.718 18.408 3.229 4.508 0.442 8.797 1.302 9.53 1.91 0.734 0.609 3.795 1.247 6.803 1.417l5.47 0.31-5.5 2.586c-4.802 2.258-5.765 2.415-7.587 1.242-1.852-1.193-2.585-1.007-6.5 1.645-4.998 3.387-6.813 3.647-10.854 1.558-2.639-1.365-2.878-1.329-3.357 0.5-0.697 2.664-4.092 2.506-5.994-0.281-1.505-2.205-1.6-2.215-4.703-0.5-3.535 1.953-6.005 2.262-6.005 0.75 0-0.55-0.9-1.9-2-3-2.249-2.249-2.557-6.453-0.909-12.391 1.066-3.837 1.017-3.951-3.559-8.336-2.849-2.73-5.214-4.225-6.129-3.874-1.147 0.44-1.248 1.022-0.441 2.53 0.577 1.078 1.496 2.236 2.043 2.574 1.258 0.778 1.286 5.601 0.052 8.846-1.116 2.936-4.562 4.306-6.592 2.622-0.792-0.657-2.027-0.969-2.744-0.694-0.718 0.275-2.159-0.124-3.204-0.888-1.502-1.099-2.072-1.128-2.728-0.139-0.62 0.934-1.308 0.681-2.72-1-2.208-2.629-3.55-2.947-2.661-0.629 0.479 1.248 0.156 1.498-1.406 1.09-1.862-0.487-1.822-0.286 0.485 2.456 3.777 4.489 3.326 5.679-1.927 5.087-2.443-0.275-5.705-0.156-7.25 0.266-2.736 0.747-2.75 0.783-0.501 1.374 3.811 1 2.408 2.63-1.959 2.276-2.725-0.22-3.846 0.027-3.399 0.75 0.367 0.594 1.428 1.094 2.358 1.112 1.804 0.034 5.833 2.674 5.118 3.353-0.235 0.222-2.114 1.104-4.177 1.959-3.531 1.463-3.75 1.811-3.75 5.963v4.408l6.147 0.643c3.38 0.353 20.818 0.643 38.75 0.644s43.853 0.339 57.603 0.75l25 0.748-14.5 0.624c-7.975 0.344-29.575 0.683-48 0.754-38.74 0.149-65 1.07-65 2.279 0 0.463 11.588 0.847 25.75 0.853 23.858 9e-3 63.319 0.644 166.25 2.674 35.097 0.692 38.432 0.882 25 1.425-8.525 0.345-25.4 0.692-37.5 0.772-27.252 0.18-59.782 1.601-81.5 3.56-19.106 1.724-53.548 3.351-79.748 3.768l-18.248 0.291-2e-3 6.643-2e-3 6.642 17.25 0.608c64.084 2.26 79.298 2.875 79.667 3.219 0.229 0.213-11.021 0.389-25 0.39-28.67 3e-3 -72.166 1.082-71.475 1.774 0.251 0.25 62.917 0.892 139.26 1.426 76.341 0.533 144.43 1.269 151.3 1.634 11.974 0.636 11.363 0.699-14.5 1.503-14.85 0.461-83.025 1.201-151.5 1.643-68.475 0.443-124.61 0.853-124.75 0.911-0.137 0.059-0.25 1.569-0.25 3.357l1e-3 3.25h52.249c54.767 0 92.572 1.192 83.25 2.626-2.75 0.423-19.4 2.201-37 3.952s-32.375 3.523-32.834 3.937c-1.071 0.967 15.941 1.961 49.334 2.881 22.109 0.609 27.038 1.014 29.75 2.443 1.787 0.942 3.25 2.079 3.25 2.526 0 0.448-3.488 1.545-7.75 2.438-7.236 1.515-5.411 1.617 5.25 0.293 3.535-0.44 3.651-0.394 1 0.391-1.786 0.529 12.575 0.631 35.5 0.251 21.175-0.351 118.6-0.66 216.5-0.688 97.9-0.027 173.84-0.179 168.75-0.338-5.087-0.158-9.25-0.674-9.25-1.147 0-2.597 26.449-4.72 75.5-6.059 41.235-1.126 54.5-1.894 54.5-3.155 0-0.468-0.895-0.851-1.99-0.851-1.094 0-16.731-1.323-34.75-2.94-18.018-1.617-37.035-3.304-42.26-3.75l-9.5-0.81 18-0.671c9.9-0.369 44.438-0.992 76.75-1.384l58.75-0.712v-2.756-2.756l-21.25-0.586c-11.687-0.322-77.725-0.878-146.75-1.234-69.025-0.357-132.02-0.931-140-1.275l-14.5-0.626 20-0.782c11-0.431 83.353-1.159 160.78-1.618 77.431-0.46 141-1.051 141.26-1.314 0.967-0.966-24.785-1.788-58.454-1.865-19.026-0.043-34.143-0.237-33.593-0.431 0.907-0.318 24.405-1.306 74.171-3.116l18.171-0.66 0.329-6.308c0.403-7.73 1.279-7.374-18.185-7.392-22.268-0.021-59.155-1.855-82.986-4.127-15.07-1.436-33.983-2.27-63.238-2.789-67.904-1.205-59.613-1.715 66.738-4.104 29.15-0.551 63.013-1 75.25-0.998s22.25-0.376 22.25-0.84c0-1.076-23.202-2.148-46.587-2.152-20.692-5e-3 -81.555-1.196-81.162-1.589 0.144-0.143 22.984-0.527 50.755-0.853 27.772-0.326 56.456-0.856 63.744-1.179l13.25-0.588v-3.862c0-4.287-1.841-5.933-6.634-5.933-2.21 0-2.516-0.251-1.522-1.25 0.684-0.687 2.676-1.737 4.427-2.331 2.731-0.928 1.943-1.07-5.544-1-4.8 0.044-8.727-0.178-8.727-0.495 0-1.294 4.781-4.927 9-6.84l4.5-2.04-4 0.022c-2.2 0.012-5.783 0.657-7.962 1.433s-4.166 1.206-4.416 0.956c-0.251-0.25-3e-3 -0.455 0.551-0.455 1.02 0 3.704-4.957 3.042-5.619-0.199-0.198-1.65 0.985-3.225 2.629-1.575 1.645-3.23 2.99-3.677 2.99s-0.829-1.913-0.849-4.25l-0.036-4.25-2.459 3c-1.352 1.65-2.461 3.563-2.464 4.25-8e-3 1.908-1.691 1.496-4.087-1-2.506-2.611-6.894-11.468-6.908-13.944-9e-3 -1.548 0.374-1.524 4.468 0.287 4.279 1.893 4.623 1.905 7.75 0.268 2.019-1.057 6.484-1.888 11.661-2.17 6.681-0.363 8.004-0.678 6.5-1.545-1.039-0.598-3.15-1.162-4.691-1.252-3.401-0.2-4.13-0.825-3.347-2.866 0.825-2.151 5.569-3.789 8.997-3.106 1.566 0.312 4.015 0.274 5.442-0.084 2.572-0.646 2.575-0.659 0.367-1.476-1.226-0.453-3-2.18-3.943-3.837s-2.347-3.015-3.12-3.019c-0.773-3e-3 -2.798-1.052-4.5-2.33s-3.882-2.613-4.844-2.968-1.75-1.377-1.75-2.27c0-1.37-0.766-1.52-4.864-0.957-3.923 0.54-4.981 0.364-5.469-0.906-0.332-0.866-1.518-1.575-2.636-1.575-3.547 0-2.217-3.013 2.219-5.027 2.718-1.234 6.503-1.937 10.5-1.951 3.485-0.012 6.25-0.464 6.25-1.022 0-0.55-0.591-1-1.313-1-2.215 0-6.833-5.454-5.633-6.654 0.732-0.732 0.202-1.594-1.753-2.855-1.54-0.993-3.161-2.41-3.601-3.148-0.44-0.739-1.452-1.343-2.25-1.343-0.797 0-1.45-0.45-1.45-1s-0.62-1-1.378-1c-0.757 0-1.946-0.685-2.641-1.523-0.714-0.86-2.053-1.271-3.08-0.946-1.415 0.449-2.005-0.153-2.671-2.727-0.898-3.467-2.203-3.979-9.87-3.868-2.248 0.033-4.025-0.859-6.25-3.135-1.711-1.749-3.11-3.549-3.11-3.999 0-0.451-0.9-0.257-2 0.43-1.605 1.003-2.407 0.995-4.063-0.039-1.134-0.708-2.875-1.03-3.868-0.715-1.337 0.424-2.134-0.222-3.074-2.491-1.475-3.56-4.263-5.354-6.981-4.492-1.427 0.453-2.299-0.145-3.447-2.365-2.019-3.906-6.944-7.333-10.817-7.527-1.705-0.086-3.274-0.674-3.484-1.306-0.211-0.632-1.959-2.351-3.885-3.82-3.163-2.412-3.788-2.551-6.48-1.436-2.824 1.17-3.153 1.04-6.294-2.491-3.215-3.615-3.475-3.71-8.71-3.196-2.969 0.292-8.547 0.176-12.397-0.257-4.778-0.536-7.233-0.439-7.735 0.308-0.404 0.602-0.741 0.706-0.75 0.23-8e-3 -0.476-1.079-0.168-2.38 0.685-1.735 1.136-2.662 1.253-3.477 0.438-0.814-0.814-1.597-0.671-2.934 0.54-1.004 0.907-3.602 2.018-5.774 2.467-3.033 0.627-4.026 1.342-4.277 3.08-0.186 1.29-1.368 2.659-2.75 3.184-1.332 0.507-2.423 1.585-2.423 2.397 0 0.811-0.761 1.901-1.691 2.421-1.233 0.69 0.462 1.141 6.25 1.663 4.367 0.393 10.001 1.587 12.519 2.652 3.98 1.683 5.56 1.815 12.084 1.005 5.188-0.644 8.786-1.74 11.652-3.549 4.561-2.88 7.762-3.256 10.436-1.226 1.709 1.297 2.528 3.207 0.96 2.237-1.561-0.964-7.246 2.667-7.832 5.003-0.327 1.302-1.109 2.398-1.736 2.435-4.904 0.29-8.205 1.187-8.893 2.417-0.705 1.26-1.261 1.24-4.183-0.154-3.203-1.527-3.517-1.501-6.372 0.532-1.651 1.176-3.475 2.138-4.051 2.138-2.381 0-5.993 2.375-7.011 4.61-0.87 1.909-1.853 2.39-4.888 2.39-2.089 0-4.774 0.683-5.966 1.518-1.725 1.208-3.043 1.315-6.472 0.524-6.33-1.46-6.684-1.362-8.939 2.458-1.608 2.725-2.709 3.5-4.975 3.5-2.261 0-3.523 0.882-5.652 3.951-1.507 2.172-3.19 3.919-3.74 3.881-4.375-0.302-8.603 0.414-9.857 1.668-0.825 0.825-2.4 1.5-3.5 1.5-2.074 0-5.143 2.438-5.143 4.086 0 0.519-1.462 1.835-3.25 2.925l-3.25 1.982 6.816 3e-3c3.748 2e-3 7.728 0.492 8.844 1.089 2.017 1.08 2.016 1.099-0.24 3.5-2.748 2.925-2.796 2.922 5.089 0.334 4.972-1.632 6.851-1.848 8.712-1 3.509 1.598 6.143 1.328 9.942-1.02 4.205-2.599 6.684-2.083 13.491 2.807 5.852 4.205 12.683 5.328 20.471 3.367 3.944-0.993 5.4-0.905 9.516 0.575 2.672 0.961 4.859 2.263 4.859 2.895 0 1.916-3.505 4.457-6.148 4.457-1.418 0-3.438 1.089-4.688 2.526-1.849 2.127-2.527 2.35-4.283 1.411-1.147-0.614-3.008-0.875-4.136-0.58-2.207 0.577-7.01-1.481-10.245-4.389-2.375-2.135-11.5-3.787-11.5-2.082 0 0.613-1.058 1.114-2.351 1.114-4.274 0-8.649 2.073-8.649 4.098 0 1.427-0.716 1.902-2.865 1.902-4.143 0-8.135 3.481-8.135 7.094 0 2.175-0.656 3.248-2.5 4.088-3.051 1.39-3.242 3.391-0.395 4.135 3.06 0.8 1.822 2.956-2.688 4.683-5.917 2.265-6.713 2.938-5.379 4.545 0.624 0.752 0.802 1.904 0.397 2.56-0.551 0.892 0.498 1.033 4.164 0.559 2.696-0.349 5.529-0.237 6.297 0.25 1.877 1.19 0.643 4.086-1.742 4.086-1.05 0-2.527 0.745-3.282 1.655-0.754 0.91-2.947 2.312-4.872 3.114-1.925 0.803-4.694 2.308-6.154 3.345-3.17 2.252-3.846 2.339-3.846 0.493 0-3.665-6.077-1.618-12.157 4.093-1.696 1.594-4.048 2.593-6.5 2.763-6.303 0.438-8.155-0.331-8.893-3.69-0.496-2.259-0.896-2.684-1.559-1.656-0.749 1.163-1.047 1.145-1.876-0.117-0.753-1.147-0.988-0.735-1 1.75l-0.015 3.25h-5.481-5.481l0.582-4.75c0.321-2.612 1.451-5.988 2.511-7.5 1.061-1.513 1.521-2.75 1.023-2.75-0.499 0-2.562 3.15-4.585 7s-3.94 7-4.259 7c-1.228 0 0.7-8.773 3.138-14.286 1.403-3.174 2.552-6.053 2.552-6.398 0-1.182-4.065 3.054-6.118 6.374-3.224 5.218-4.199 3.193-3.648-7.579 0.46-8.985 0.404-9.36-0.856-5.753-0.742 2.122-2.018 7.698-2.838 12.391-0.819 4.694-1.734 8.778-2.033 9.077s-2.427-1.227-4.728-3.391-3.667-3.242-3.034-2.396c1.631 2.184 3.139 9.53 2.251 10.967-0.582 0.942-0.911 0.941-1.496-6e-3s-0.919-0.94-1.518 0.028c-0.593 0.961-1.506 0.985-4.024 0.107-1.791-0.624-5.664-1.135-8.607-1.135-4.872 0-5.354-0.201-5.387-2.25-0.034-2.137-0.159-2.099-2.486 0.749-2.149 2.631-2.696 2.846-4.451 1.75-1.1-0.687-3.113-1.249-4.473-1.249-3.275 0-14.348-11.631-14.519-15.25-0.019-0.413 5.129-0.75 11.44-0.75h11.475l-0.541-2.75c-0.537-2.73-0.498-2.751 5.275-2.953 3.199-0.112 8.403-0.736 11.566-1.387 4.541-0.934 5.75-1.578 5.75-3.063 0-1.034-2.218-10.31-4.93-20.614-2.711-10.303-7.862-30.208-11.446-44.233-9.334-36.527-25.104-97.205-27.544-105.98-3.602-12.953-3.507-13.031 7.142-5.871 24.452 16.442 68.756 51.306 93.266 73.394 4.246 3.826 8.251 7.084 8.899 7.238 0.648 0.155 2.457-1.053 4.02-2.684 2.183-2.278 2.695-3.555 2.207-5.5-1.754-6.989-59.426-53.695-101.86-82.495-5.913-4.013-10.75-7.702-10.75-8.199 0-1.214-0.508-1.303 12.233 2.154 23.664 6.422 51.356 15.814 79.127 26.838 7.073 2.808 13.058 5.105 13.301 5.105 0.851 0 3.339-6.96 3.339-9.341 0-2.184-1.652-3.065-18-9.604-28.156-11.261-65.832-23.125-89.25-28.103-9.484-2.017-10.752-2.531-10.764-4.369-7e-3 -1.146-0.269-3.038-0.583-4.204-0.519-1.935 0.032-2.227 6.264-3.329 3.758-0.665 7.358-1.369 7.999-1.565 0.864-0.265 0.775-2.069-0.348-6.99-0.832-3.649-1.31-6.836-1.062-7.084 0.248-0.249 3.947 1.208 8.219 3.237 5.403 2.566 8.212 3.409 9.227 2.768 3.093-1.951 8.336-12.096 9.784-18.931 1.958-9.245 1.934-30.601-0.049-42.559-1.421-8.574-1.851-9.649-4.75-11.894-1.753-1.357-5.023-4.323-7.268-6.59l-4.08-4.124-2.654 2.116c-1.46 1.164-3.899 2.852-5.42 3.75l-2.765 1.633-0.064-18.658c-0.098-28.254-3.425-42.713-13.071-56.802-5.214-7.616-8.611-14.15-7.93-15.252 0.281-0.455 5.586-1.594 11.788-2.532 6.202-0.939 12.249-1.9 13.436-2.136 1.864-0.371 0.976-1.557-6.5-8.683-4.762-4.54-10.684-10.473-13.159-13.186-2.475-2.712-6.187-6.703-8.25-8.868-2.062-2.164-3.75-4.557-3.75-5.318 0-0.76-0.843-1.382-1.873-1.382-1.77 0-10.156-8.076-10.101-9.728 0.014-0.424 1.794-1.587 3.956-2.584 10.703-4.932 10.701-20.559-2e-3 -25.936-8.654-4.348-18.803 0.458-20.542 9.727l-0.615 3.277-6.161-0.415c-5.062-0.34-6.965 8e-3 -10.662 1.949-5.339 2.804-9.439 8.378-11.061 15.037-0.646 2.654-1.817 5.073-2.6 5.373-2.519 0.967-2.747-0.627-0.639-4.461 1.131-2.057 2.618-5.539 3.305-7.739 5.051-16.175 17.737-44.527 26.037-58.19 2.109-3.471 3.704-6.31 3.546-6.31s-2.109 1.319-4.335 2.932m-0.483 134.52c-2.484 1.897-5.654 3.735-7.043 4.083-2.961 0.744-5.938 4.338-14.881 17.968-8.759 13.35-16.105 28.363-15.677 32.038 0.313 2.694 0.485 2.557 3.241-2.597 4.285-8.014 16.656-26.749 21.167-32.057 2.158-2.539 6.634-7.939 9.946-12 10.395-12.742 10.493-12.967 3.247-7.435m15.244 1.091c-3.568 1.922-8.903 5.85-11.857 8.727-5.837 5.688-15.076 19.046-18.178 26.282-3.311 7.725-6.094 21.11-5.775 27.777 0.278 5.798 0.38 6.027 1.668 3.763 0.754-1.327 1.955-5.204 2.669-8.616s2.947-9.478 4.963-13.48c4.472-8.882 10.804-18.57 11.253-17.221 0.182 0.545-1.669 5.499-4.112 11.009-4.198 9.469-6.408 16.219-5.311 16.219 0.272 0 2.84-2.949 5.708-6.552 2.867-3.604 8.792-9.277 13.166-12.606 16.075-12.238 23.403-27.814 17.23-36.626-2.087-2.981-3.804-2.782-11.424 1.324m-23.041 16.179c-3.578 2.488-5.158 4.483-13.685 17.281-8.516 12.782-17.472 31.628-20.364 42.852-2.224 8.63-3.538 22.209-2.403 24.819 0.616 1.417 1.063 0.702 1.985-3.171l1.191-5 1.217 4.351c0.67 2.393 1.385 4.184 1.589 3.98 0.204-0.205 1.091-5.763 1.971-12.351 0.881-6.589 1.949-13.555 2.375-15.48 0.729-3.295 0.814-3.129 1.455 2.825 0.798 7.411 2.099 10.633 3.064 7.588 0.334-1.052 1.533-7.088 2.666-13.413 4.15-23.167 8.301-34.991 16.851-48 5.14-7.82 5.25-8 4.887-8-0.18 0-1.44 0.774-2.799 1.719m25.517 16.447c-18.127 12.16-29.629 25.525-42.886 49.834-11.717 21.485-23.759 39.447-34.745 51.822-5.399 6.083-7.098 9.178-5.036 9.178 0.452 0 4.483 2.681 8.956 5.958 16.004 11.723 52.408 33.188 53.846 31.75 0.23-0.23-8.479-6.405-19.353-13.721-10.875-7.317-21.947-15.015-24.606-17.108l-4.834-3.805 5.084 0.602c4.969 0.589 5.084 0.543 5.084-2.012 0-2.371 0.279-2.558 3-2.014 2.319 0.464 3 0.242 3-0.978 0-0.929 1.336-1.948 3.25-2.477 3.698-1.023 20.977-7.923 24.75-9.884 2.302-1.196 1.985-1.309-4-1.432-3.575-0.073-11.355-0.414-17.29-0.756l-10.79-0.623 6.318-5c3.475-2.75 14.5-9.93 24.502-15.955 10.001-6.025 18.077-11.061 17.947-11.191-0.569-0.569-32.388 7.863-36.446 9.658-2.472 1.093-4.702 1.988-4.954 1.988-0.253 0 12.436-12.868 28.197-28.597 15.761-15.728 28.414-28.838 28.119-29.133-0.591-0.591-11.976 5.93-20.603 11.801-3.025 2.058-8.823 6.934-12.885 10.836-4.062 3.901-7.57 7.093-7.795 7.093-1.061 0 13.045-17.434 22.775-28.149 12.724-14.013 18.345-20.745 17.786-21.303-0.22-0.22-3.096 1.407-6.391 3.618m-69.439 50.739c-3.21 5.998-8.045 19.865-8.009 22.971 0.023 1.993 0.904 5.199 1.958 7.124l1.916 3.5 0.042-6.691c0.023-3.68 0.475-6.958 1.004-7.285s1.91 1.265 3.069 3.538c1.16 2.272 2.346 3.894 2.636 3.604s-0.029-4.604-0.71-9.586-0.971-11.313-0.645-14.069c0.638-5.388 0.346-6.108-1.261-3.106m-13.281 28.753c-1.441 1.442-1.481 1.997-0.303 4.25 1.485 2.842 7.27 8.702 7.917 8.019 0.578-0.61-4.474-13.927-5.283-13.927-0.37 0-1.419 0.746-2.331 1.658m-75.122 29.526c-0.849 3.168-0.801 3.816 0.285 3.816 1.392 0 2.412-4.055 1.3-5.167-0.62-0.62-1.187-0.138-1.585 1.351m5.369 3.271c-1.249 3.284-1.255 3.545-0.084 3.545 0.513 0 1.275-1.013 1.695-2.25 0.719-2.124 0.794-2.082 1.327 0.75 0.635 3.372 2.545 3.651 2.545 0.372 0-1.17-1.005-2.795-2.233-3.611-2.093-1.389-2.296-1.315-3.25 1.194m8.983 5.545c0 2 0.5 3 1.5 3 1.57 0 1.921-1.738 0.893-4.418-1.002-2.612-2.393-1.788-2.393 1.418m6 2.992c0 3.415 0.989 3.857 2.657 1.185 0.924-1.479 0.78-2.047-0.759-3.009-1.706-1.065-1.898-0.881-1.898 1.824m5.568 1.691c-0.406 1.058 0.16 2.452 1.521 3.75l2.168 2.067-0.615-2.5c-0.338-1.375-0.621-3.062-0.628-3.75-0.02-1.824-1.693-1.528-2.446 0.433m4.432 2.758c0 1.343 0.418 2.699 0.928 3.015 1.128 0.697 2.451-3.033 1.578-4.447-1.134-1.834-2.506-1.049-2.506 1.432m5.37 0.809c0.331 1.237 0.609 3.038 0.616 4 8e-3 0.962 0.689 1.75 1.514 1.75s1.5-0.675 1.5-1.5 0.497-1.5 1.105-1.5c1.279 0-3.169-4.957-4.472-4.983-0.476-9e-3 -0.595 0.996-0.263 2.233m7.63 4.309c0 0.857 0.45 1.281 1 0.941s1-1.041 1-1.559-0.45-0.941-1-0.941-1 0.702-1 1.559m52.335 33.441c8.313 17.955 35.06 65.89 37.662 67.498 0.908 0.561 10.004-6.222 10.003-7.46-1e-3 -0.296-5.268-7.288-11.705-15.538-6.438-8.25-17.674-23.325-24.97-33.5s-13.952-19.4-14.79-20.5c-0.839-1.1 0.871 3.175 3.8 9.5m375.86-6.79c-1.482 0.977-3.675 1.78-4.874 1.783-1.498 5e-3 -2.281 0.712-2.5 2.257-0.226 1.588-0.883 2.153-2.234 1.919-2.929-0.508-6.378 1.797-7.498 5.009-0.653 1.872-2.232 3.402-4.48 4.341-1.909 0.798-3.754 1.908-4.099 2.466s-1.898 1.015-3.451 1.015c-1.956 0-2.981 0.598-3.333 1.942-0.666 2.548-0.034 3.058 3.788 3.058 1.749 0 4.632 0.725 6.407 1.61 1.925 0.96 4.381 1.38 6.085 1.039 2.373-0.475 3.376 0.021 5.926 2.925 3.951 4.501 4.073 6.704 0.319 5.807-1.513-0.361-3.312-1.1-4-1.641-0.895-0.705-1.25-0.505-1.25 0.705 0 1.328-0.482 1.515-2.25 0.872-3.805-1.382-10.978-0.726-12.333 1.128-0.675 0.922-2.386 1.987-3.803 2.366-5.179 1.385-2.955 2.707 6.326 3.76 5.193 0.589 9.587 1.489 9.766 2 1.727 4.932 2.953 5.928 7.188 5.836 2.362-0.052 4.656-0.679 5.098-1.394 0.774-1.253 7.211-0.813 23.008 1.573 3.077 0.465 3.258 0.381 1.5-0.693-1.1-0.672-2.225-1.553-2.5-1.957s-1.625-0.892-3-1.085c-1.68-0.236-3.156-1.58-4.5-4.098-1.854-3.473-2.33-3.749-6.5-3.764-5.985-0.022-9-0.911-9-2.653 0-2.065 4.805-6.212 8.41-7.259l3.09-0.897-2.846-0.09c-1.565-0.049-4.186 0.698-5.824 1.66-2.869 1.686-3.031 1.679-4.404-0.191-2.51-3.418-1.772-4.559 2.949-4.559 6.366 0 10.625 1.052 10.625 2.625 0 1.092 2.533 1.375 12.318 1.375 10.702 0 13.453-0.363 20.956-2.763 5.096-1.63 8.348-3.167 7.932-3.75-1.169-1.635-5.224-3.594-6.196-2.993-0.5 0.309-1.916-0.801-3.148-2.466-1.231-1.665-2.828-3.028-3.55-3.028s-1.312-0.474-1.312-1.054c0-2.019-5.754-7.194-8.311-7.475-3.323-0.364-4.689-1.242-4.689-3.011 0-0.782-1.237-1.692-2.75-2.022s-3.891-1.029-5.285-1.552c-3.558-1.334-8.6-0.767-11.771 1.324m-13.748 45.877c-1.166 1.887 0.966 2.883 4.828 2.256 5.157-0.837 4.996-3.343-0.215-3.343-2.168 0-4.243 0.489-4.613 1.087m-607.26 4.663c0.246 2.146 0.909 2.818 3.017 3.062 1.485 0.171 3.677-0.212 4.871-0.851 2.165-1.158 2.163-1.167-0.7-3.055-1.58-1.041-3.914-1.896-5.188-1.899-1.939-6e-3 -2.265 0.442-2 2.743m612.69 5c-4.134 3.02-6.259 4.269-10.037 5.902-2.016 0.871-3.886 2.431-4.157 3.466-0.467 1.787-4.089 2.508-9.81 1.954-0.997-0.096-1.888 0.869-2.293 2.483-0.543 2.161-1.085 2.534-2.993 2.055-1.761-0.442-3.399 0.351-6.707 3.248-2.407 2.108-5.501 4.449-6.876 5.202-2.428 1.331-2.341 1.392 3 2.142 3.025 0.425 8.255 0.507 11.621 0.182 5.615-0.541 6.257-0.397 7.75 1.736 0.896 1.279 1.629 3.06 1.629 3.958 0 0.989 1.281 1.991 3.25 2.541 2.221 0.621 3.725 1.929 4.75 4.131 0.825 1.773 2.239 3.469 3.142 3.77 0.903 0.3 3.153 2.101 5 4.002 2.092 2.154 4.322 3.461 5.917 3.467 1.407 6e-3 3.432 0.672 4.5 1.479 1.067 0.808 3.066 1.483 4.441 1.501s5.751 0.711 9.725 1.54c6.767 1.412 7.797 1.379 16.286-0.511 4.983-1.11 14.536-2.313 21.228-2.673 11.827-0.636 12.077-0.696 8.964-2.171-1.762-0.834-3.203-2.11-3.203-2.835 0-0.726-0.922-1.319-2.048-1.319-1.353 0-2.501-1.075-3.381-3.168-1.024-2.437-1.994-3.204-4.201-3.321-1.579-0.084-3.823 0.454-4.987 1.196-1.901 1.211-2.286 1.091-3.773-1.179-0.911-1.391-2.321-2.528-3.133-2.528s-1.477-0.852-1.477-1.893c0-1.525-1.141-2.094-5.867-2.927-3.227-0.568-7.164-0.888-8.75-0.712-1.586 0.177-3.704-0.114-4.707-0.648-1.453-0.772-1.935-0.547-2.367 1.105-0.298 1.141-0.827 2.122-1.176 2.179-0.348 0.058-2.363 0.212-4.477 0.343-2.113 0.13-4.174 0.774-4.579 1.429-0.405 0.656-1.444 0.921-2.307 0.589-1.216-0.466-1.729 0.332-2.27 3.536-0.385 2.276-1.293 4.366-2.019 4.645-3.25 1.247-9.548-6.423-8.187-9.971 0.883-2.3 7.599-5.009 9.175-3.7 1.112 0.922 1.258 0.412 0.82-2.858-0.527-3.927-0.484-3.99 3.152-4.672 2.027-0.38 5.57-0.391 7.872-0.023 2.303 0.367 6.212 0.884 8.687 1.147l4.5 0.48-4.25-2.222c-4.996-2.611-5.666-5.472-1.5-6.405 1.513-0.339 4.325-1.02 6.25-1.513 1.925-0.494 6.425-0.907 10-0.919 3.575-0.011 8.464-0.608 10.864-1.325l4.363-1.305-3.275-1.587c-1.802-0.872-3.878-1.355-4.614-1.072-0.736 0.282-1.342-0.098-1.346-0.844-8e-3 -1.456-4.36-3.857-6.991-3.857-0.881 0-2.12 0.519-2.755 1.154-0.634 0.634-2.524 1.114-4.2 1.066-1.95-0.055-3.046 0.405-3.046 1.279 0 1.828-3.766 2.94-5.39 1.592-0.712-0.59-1.576-0.792-1.921-0.447-0.675 0.675-4.915-1.845-8.108-4.82-1.084-1.009-2.707-1.601-3.608-1.315-0.909 0.288-2.448-0.376-3.46-1.495-2.235-2.47-3.548-2.522-6.64-0.264m-14.679 28.592c0.27 2.789 0.704 3.196 3.709 3.483 2.209 0.211 4.322-0.354 6.02-1.61 1.438-1.063 3.653-2.263 4.922-2.666 3.781-1.2 1.647-1.855-6.895-2.117l-8.063-0.248 0.307 3.158m-602.22 3.223c-0.536 1.411-0.975 3.691-0.975 5.067 0 2.126 0.339 2.402 2.25 1.836 2.584-0.765 8.95-5.567 9.477-7.149 0.402-1.206-2.876-2.285-7.002-2.305-2.065-0.011-3.024 0.642-3.75 2.551m627.23 15.178c-0.992 0.347-1.022 0.777-0.127 1.854 1.404 1.692 6.253 1.904 5.701 0.249-0.479-1.438-3.845-2.707-5.574-2.103m-127.4 0.94c0.721 0.289 1.584 0.253 1.916-0.079s-0.258-0.568-1.312-0.525c-1.165 0.048-1.402 0.285-0.604 0.604m135.19 1.243c0 3.069 13.928 5.329 19.478 3.161 1.882-0.736 1.858-0.838-0.5-2.112-3.321-1.795-18.978-2.66-18.978-1.049m-52.782 17.247c0.24 0.73 1.688 1.474 3.218 1.654 1.961 0.23 2.653-0.065 2.346-1-0.24-0.73-1.688-1.474-3.218-1.654-1.961-0.23-2.653 0.065-2.346 1m-25.718 3.546c-7.287 0.496-8.131 0.926-6.136 3.131 0.9 0.994 1.636 2.533 1.636 3.42 0 2.362 2.116 3.274 3.181 1.37 0.514-0.917 2.165-1.64 3.746-1.64 3.201 0 5.4-2.07 4.906-4.619-0.392-2.019-0.781-2.107-7.333-1.662m39.5 14.994c-3.891 1.441-4.835 5.287-1.297 5.287 0.818 0 2.777 0.918 4.353 2.04l2.864 2.04 2.094-2.094c1.151-1.151 2.901-1.957 3.888-1.79 2.024 0.343 7.098-2.08 7.098-3.39 0-1.803-4.797-2.681-8.478-1.551-2.785 0.854-4.141 0.839-5.587-0.063-2.051-1.281-2.618-1.336-4.935-0.479m-640.4 4.119c-0.283 0.457 1.611 2.925 4.209 5.483 4.546 4.479 4.857 4.615 8.346 3.651 4.617-1.274 6.552-3.404 4.901-5.393-2.57-3.098-16.066-5.99-17.456-3.741m51.268 2.304c-1.305 0.365-5.353 0.709-8.997 0.764-9.066 0.137-13.124 1.03-12.43 2.736 0.305 0.75 0.83 2.043 1.165 2.873 0.492 1.215 0.157 1.341-1.718 0.647-1.7-0.629-3.684-0.234-7.353 1.466-2.764 1.281-6.946 2.616-9.294 2.969-4.16 0.623-6.091 1.897-4.813 3.174 0.347 0.347 6.493 0.508 13.657 0.356 10.239-0.217 13.514 0.044 15.311 1.222 1.87 1.225 2.725 1.274 4.693 0.269 1.324-0.676 2.345-1.99 2.268-2.92-0.076-0.931 0.261-1.692 0.75-1.692 3.548 0 4.889-1.713 4.889-6.245 0-3.365 0.228-3.81 1.438-2.807 1.491 1.238 9.604 0.589 12.562-1.005 1.333-0.719 1.333-0.864 0-1.312-2.658-0.893-9.687-1.18-12.128-0.495m535.9 6.864c-0.87 1.393-2.332 2-4.817 2-1.963 0-4.378 0.592-5.367 1.315-1.692 1.237-1.646 1.414 0.774 3 3.941 2.582 7.473 2.205 8.248-0.881 0.551-2.194 1.125-2.524 3.965-2.28 4.273 0.369 5.209-0.635 2.935-3.148-2.304-2.545-4.151-2.547-5.738-6e-3m-34.545 4.169c0.676 2.029 7.63 3.813 12.346 3.167 5.225-0.717 5.624-1.725 1.282-3.238-4.326-1.508-14.137-1.457-13.628 0.071m85.777 17.674c0 0.51 1.195 1.71 2.655 2.666 2.334 1.53 3.307 1.594 8.055 0.531 3.267-0.731 5.248-1.669 5.015-2.374-0.465-1.407-15.725-2.205-15.725-0.823m-6 2.968c0 1.613 4.122 5.189 5.98 5.189 3.015 0 3.565-2.14 1.068-4.162-2.281-1.847-7.048-2.541-7.048-1.027m25.654 1.868c-0.373 0.374-2.56 0.855-4.86 1.069-5.346 0.498-14.079 7.344-13.572 10.638 0.193 1.255 0.925 1.979 1.802 1.78 0.812-0.183 3.951-0.796 6.976-1.362 5.559-1.039 10-4.308 10-7.36 0-0.896 1.007-1.444 2.655-1.444 2.592 0 2.612-0.048 0.845-2-1.925-2.127-2.754-2.412-3.846-1.321m-58.821 4.655c-2.256 2.801-3.084 3.146-7.192 2.992-5.161-0.193-5.951 0.756-2.094 2.513 3.932 1.792 8.336 1.384 11.755-1.089 1.711-1.237 4.91-2.975 7.108-3.862 5.757-2.321 5.398-3.365-1.222-3.554-5.404-0.155-5.982 0.053-8.355 3m11.024 3.539c-2.554 1.445-6.154 4.39-8 6.544s-6.395 5.864-10.107 8.243c-5.455 3.497-6.75 4.819-6.75 6.892 0 2.68 0.789 2.613 4.248-0.357 1.56-1.34 2.172-1.309 5.695 0.279 2.171 0.979 4.95 2.848 6.176 4.153 2.967 3.158 3.999 3.024 10.615-1.377 5.677-3.776 8.643-5.658 16.159-10.25 4.077-2.491 4.092-2.522 4.099-8.691 5e-3 -3.405-0.41-6.449-0.921-6.765s-2.966-0.03-5.455 0.636c-3.946 1.056-4.767 0.993-6.4-0.485-2.411-2.181-3.711-2.017-9.359 1.178m51.893-2.184c-2.643 0.691-2.184 1.968 3 8.35 5.043 6.208 6.617 7.026 8.104 4.211 0.946-1.79 0.127-9.854-1.222-12.037-0.724-1.171-6.279-1.465-9.882-0.524m-78.75 6.656c0 3.519 6.273 5.982 8.8 3.455 1.833-1.833 1.478-2.508-1.949-3.702-4.239-1.478-6.851-1.383-6.851 0.247m-17.893 7.714c-2.156 1.796-2.559 1.842-4.078 0.467-2.073-1.876-8.383-2.1-7.786-0.276 0.225 0.688 2.175 1.628 4.333 2.089s7.655 1.708 12.216 2.769l8.291 1.931 4.459-3.068c6.174-4.248 5.553-6.794-0.937-3.837-1.957 0.892-3.556 0.785-7.485-0.5-6.149-2.011-6.083-2.014-9.013 0.425m-19.607 5.417c-1.65 0.789-4.013 1.454-5.25 1.479s-2.25 0.51-2.25 1.077c0 1.805 4.257 2.702 7.743 1.632 2.636-0.809 4.404-0.647 8.328 0.764 2.74 0.986 5.905 1.55 7.033 1.255 1.418-0.371 3.224 0.522 5.845 2.89 4.13 3.731 7.035 4.3 9.48 1.856 1.806-1.807 2.091-5.989 0.476-6.988-2.151-1.329-16.065-4.399-22.181-4.894-4.261-0.345-7.17-0.052-9.224 0.929m-360 81.486c-12.15 0.503-12.582 0.587-6.603 1.288 8.137 0.954 300.75 0.796 304.1-0.165 1.457-0.417-4.015-1.004-13.118-1.407-17.738-0.787-264.49-0.54-284.38 0.284m368.79 12.78c3.735 0.193 9.585 0.192 13-3e-3 3.414-0.194 0.358-0.352-6.792-0.35-7.15 1e-3 -9.944 0.161-6.208 0.353m-454.79 5.379c-8.25 0.341-29.625 0.727-47.5 0.856s-36.55 0.566-41.5 0.97l-9 0.736 12.5 0.185c6.875 0.101 29.6 0.641 50.5 1.2 78.875 2.109 615.45 0.544 613.11-1.788-2.006-2.005-533.84-3.992-578.11-2.159m-55.668 20.805c-27.867 0.316-50.942 0.849-51.277 1.185-1.829 1.832 150.57 2.733 234.39 1.386 36.634-0.589 49.773-1.097 48-1.857-2.791-1.196-148.71-1.646-231.11-0.714m382.42-0.256c-26.878 0.726-14.226 2.01 27.5 2.792 82.114 1.537 258.2 0.368 236.25-1.57-8.41-0.742-241.53-1.822-263.75-1.222m-240.25 18.338c-10.175 0.405-51.575 0.847-92 0.981-40.425 0.135-76.425 0.536-80 0.892-8.439 0.84 66.312 1.916 142 2.044 32.725 0.056 78.175 0.58 101 1.166 40.855 1.048 65.224 0.958 267-0.99 55.825-0.539 113.61-1.007 128.42-1.04 14.804-0.034 26.579-0.398 26.167-0.811-1.666-1.667-455.17-3.73-492.58-2.242"
		fill-rule="evenodd" />
</svg>