<svg xmlns="http://www.w3.org/2000/svg" width="1024" height="1024" viewBox="0 0 1024 1024" version="1.1">
	<path d="M 477 68.675 C 443.680 72.053, 416.534 77.576, 384.500 87.494 C 365.264 93.449, 355.124 97.453, 336.124 106.596 C 296.447 125.688, 267.195 146.222, 235.117 177.500 C 177.414 233.764, 142.569 296.758, 126.053 374.667 C 114.725 428.108, 115.676 493.340, 128.617 550.500 C 134.410 576.090, 146.858 610.612, 159.265 635.500 C 166.400 649.812, 173.825 661.611, 174.925 660.384 C 176.753 658.344, 184.097 639.480, 183.682 637.891 C 183.381 636.742, 183.947 635.973, 185.364 635.607 C 186.718 635.257, 188.232 633.329, 189.500 630.341 C 193.480 620.963, 212.611 590.088, 222.863 576.500 C 238.592 555.650, 268.588 524.490, 287 509.872 C 326.500 478.511, 369.041 457.813, 419 445.647 C 436.483 441.389, 459.899 437, 465.128 437 C 468.726 437, 469.165 436.636, 473.286 430.250 C 475.682 426.538, 479.353 420.402, 481.445 416.615 C 483.537 412.829, 486.669 408.104, 488.405 406.115 C 492.685 401.212, 497.412 394.078, 496.791 393.458 C 496.512 393.179, 493.729 393.617, 490.606 394.430 C 483.382 396.312, 482 395.776, 482 391.093 C 482 389.062, 481.502 386.902, 480.893 386.293 C 480.284 385.684, 479.478 383.681, 479.102 381.843 C 478.607 379.423, 477.877 378.500, 476.459 378.500 C 475.061 378.500, 474.356 377.642, 473.998 375.500 C 473.436 372.137, 474.563 372.296, 459.043 373.398 L 449.586 374.069 451.684 371.785 C 453.663 369.629, 465.456 351.754, 467.849 347.282 C 468.705 345.682, 468.584 344.474, 467.311 341.921 C 465.779 338.850, 465.788 338.046, 467.445 330.063 C 469.566 319.849, 472.934 308.601, 473.656 309.323 C 473.940 309.607, 473.420 313.221, 472.500 317.355 C 471.424 322.190, 471.153 325.451, 471.739 326.498 C 472.477 327.816, 472.845 327.876, 473.673 326.813 C 476.096 323.702, 479.171 316.882, 481.932 308.500 C 487.155 292.641, 491.923 279.584, 493.620 276.500 C 495.432 273.206, 503.962 264, 505.203 264 C 505.631 264, 504.384 266.813, 502.433 270.250 C 494.238 284.686, 480.555 315.610, 478.429 324.500 C 478.035 326.150, 476.397 330.133, 474.791 333.351 C 471.657 339.627, 471.668 340.783, 474.842 339.084 C 476.036 338.446, 477.488 335.867, 478.407 332.753 C 480.870 324.410, 483.391 321.168, 489.638 318.308 C 494.299 316.174, 496.109 315.855, 500.572 316.380 L 505.921 317.008 507.041 312.846 C 511.244 297.239, 533.243 299.689, 534.753 315.932 C 535.294 321.743, 532.279 326.592, 526.220 329.656 L 521.956 331.813 525.728 336.393 C 527.859 338.981, 530.696 341.251, 532.250 341.611 C 533.763 341.963, 535 342.914, 535 343.725 C 535 345.403, 539.447 350.266, 556.370 367.097 C 567.117 377.785, 568.016 378.949, 565.870 379.407 C 564.567 379.685, 558.784 380.621, 553.020 381.486 C 547.256 382.352, 542.177 383.423, 541.733 383.867 C 540.584 385.016, 542.377 389.192, 546.854 395.792 C 555.205 408.102, 560.978 423.438, 561.015 433.410 C 561.024 435.659, 561.361 437.994, 561.765 438.598 C 562.169 439.202, 565.534 439.972, 569.242 440.309 C 579.995 441.288, 607.322 447.714, 622 452.715 C 655.748 464.212, 688.331 481.306, 716.899 502.500 C 731.690 513.474, 739.023 519.927, 756.606 537.448 C 777.628 558.395, 788.886 572.265, 803.526 595.250 C 807.725 601.843, 811.014 606, 812.032 606 C 813.801 606, 817 603.003, 817 601.346 C 817 599.353, 821.689 595.967, 824.080 596.232 C 825.891 596.433, 826.571 595.964, 826.803 594.355 C 827.007 592.935, 828.022 592.038, 829.806 591.700 C 831.288 591.420, 834.439 590.465, 836.810 589.579 C 840.672 588.136, 841.701 588.121, 846.732 589.435 C 850.510 590.421, 853.054 591.789, 854.513 593.619 C 856.046 595.542, 857.206 596.135, 858.479 595.646 C 859.813 595.135, 861.439 596.190, 864.770 599.728 C 867.240 602.353, 868.931 603.906, 868.528 603.180 C 868.108 602.423, 869.085 599.439, 870.821 596.180 C 874.786 588.735, 882.908 562.287, 887.385 542.243 C 894.792 509.078, 897.343 486.628, 897.354 454.500 C 897.381 375.779, 875.027 302.349, 830.951 236.382 C 819.304 218.950, 791.656 185.935, 781.314 177.109 C 779.216 175.319, 775.250 171.715, 772.500 169.100 C 757.494 154.833, 730.421 135.383, 706 121.325 C 678.845 105.693, 660.887 97.609, 632.206 88.107 C 601.287 77.863, 572.954 72.082, 538.500 68.989 C 528.347 68.078, 485.071 67.857, 477 68.675 M 825.667 614.667 C 824.470 615.863, 824.965 618.726, 826.604 620.086 C 827.951 621.205, 828.684 621.144, 831.185 619.709 C 832.822 618.769, 835.363 618.039, 836.831 618.086 L 839.500 618.172 836.914 618.956 C 832.933 620.162, 829.422 622.779, 828.207 625.444 C 827.158 627.747, 827.313 627.905, 831.510 628.800 C 833.932 629.316, 837.050 629.522, 838.439 629.256 C 840.397 628.882, 841.184 629.304, 841.948 631.137 C 843.513 634.896, 845.421 636.817, 848.312 637.542 C 850.261 638.031, 851 637.836, 851 636.830 C 851 636.068, 852.575 632.157, 854.500 628.140 C 856.425 624.124, 858 620.424, 858 619.919 C 858 619.413, 854.197 619, 849.550 619 C 843.118 619, 840.901 618.645, 840.269 617.516 C 839.129 615.480, 827.184 613.149, 825.667 614.667 M 817.238 616.832 C 815.689 617.815, 816.712 624.114, 818.378 623.854 C 818.995 623.758, 820.767 624.201, 822.315 624.840 C 826.021 626.367, 827 626.303, 827 624.535 C 827 622.710, 821.203 615.995, 819.646 616.015 C 819.016 616.024, 817.932 616.391, 817.238 616.832 M 829.057 639.134 C 829.120 640.644, 838.781 649.004, 840.450 648.993 C 841.642 648.985, 846 642.942, 846 641.295 C 846 639.752, 844.037 639.187, 836.046 638.433 C 830.419 637.902, 829.012 638.043, 829.057 639.134 M 746 672.500 C 744.075 673.812, 741.964 674.911, 741.309 674.942 C 739.352 675.037, 738.808 676.877, 740.728 676.907 C 741.703 676.922, 747.701 677.070, 754.057 677.236 L 765.614 677.537 768.663 680.949 C 771.588 684.222, 771.842 684.308, 774.882 683.049 C 778.252 681.653, 779.957 682.451, 784.107 687.368 C 784.991 688.416, 787.095 689.382, 788.781 689.514 C 792.627 689.817, 797.574 693.276, 799.508 697.015 C 800.595 699.117, 801.842 699.955, 804.230 700.186 C 806.609 700.416, 808.010 701.353, 809.487 703.700 C 810.897 705.941, 812.039 706.740, 813.298 706.367 C 814.287 706.074, 815.747 706.375, 816.543 707.035 C 817.338 707.696, 818.978 707.978, 820.186 707.662 C 821.817 707.235, 823.245 707.975, 825.731 710.535 C 828.494 713.379, 829.752 713.956, 832.924 713.832 C 836.695 713.684, 836.753 713.624, 835.915 710.705 C 835.446 709.068, 834.935 707.669, 834.781 707.596 C 834.626 707.523, 832.157 705.334, 829.293 702.732 C 825.365 699.162, 823.300 698, 820.889 698 C 818.424 698, 816.818 697.053, 813.870 693.860 C 810.104 689.780, 809.970 689.728, 804.774 690.332 C 798.832 691.023, 798.126 690.716, 795.956 686.500 C 794.803 684.261, 793.695 683.490, 791.585 683.460 C 788.943 683.422, 785.755 680.766, 784.757 677.770 C 784.520 677.059, 782.853 676.668, 780.678 676.815 C 777.973 676.997, 777 676.668, 777 675.570 C 777 673.924, 769.891 671.422, 766.325 671.813 C 765.129 671.945, 763.865 671.590, 763.516 671.026 C 762.637 669.603, 757.662 669.738, 756.175 671.225 C 755.208 672.192, 754.536 672.192, 752.989 671.225 C 750.435 669.630, 750.131 669.685, 746 672.500 M 193.450 690.081 C 193.082 690.676, 191.753 690.904, 190.496 690.588 C 189.238 690.273, 186.590 690.691, 184.610 691.519 C 181.713 692.729, 180.626 692.783, 179.047 691.797 C 177.387 690.760, 176.711 690.923, 174.657 692.853 C 172.740 694.653, 171.521 695.006, 168.864 694.525 C 165.835 693.978, 165.263 694.270, 163.121 697.459 C 161.813 699.406, 159.985 701, 159.059 701 C 158.133 701, 156.444 702.261, 155.305 703.801 C 154.121 705.403, 151.364 707.205, 148.867 708.009 C 144.914 709.283, 143.058 710.559, 143.015 712.032 C 142.975 713.416, 148.519 712.776, 152.013 710.993 C 154.162 709.897, 156.438 709, 157.071 709 C 157.704 709, 161.157 706.947, 164.746 704.439 C 169.300 701.255, 172.087 699.963, 173.972 700.161 C 175.457 700.317, 177.856 699.669, 179.301 698.722 C 182.498 696.628, 183.940 696.569, 186.590 698.425 C 189.157 700.223, 190.251 699.499, 192.520 694.500 C 193.519 692.300, 194.512 690.163, 194.727 689.750 C 195.339 688.576, 194.197 688.872, 193.450 690.081 M 200.437 692.300 C 199.612 692.759, 199 694.596, 199 696.612 L 199 700.124 204.750 699.972 C 214.964 699.703, 223.208 702.786, 225.020 707.552 C 225.991 710.105, 227.443 710.710, 228.500 709 C 229.633 707.166, 231.482 707.980, 233.254 711.094 C 234.885 713.960, 235.285 714.128, 239.004 713.499 C 242.209 712.958, 243 713.125, 243 714.345 C 243 715.938, 246.692 717.641, 247.782 716.551 C 248.737 715.597, 245.471 710.652, 243.053 709.389 C 241.883 708.778, 239.900 707.316, 238.648 706.139 C 237.396 704.963, 235.793 704, 235.087 704 C 234.380 704, 232.565 702.676, 231.054 701.057 C 229.542 699.439, 226.999 697.791, 225.402 697.396 C 223.806 697, 221.922 695.864, 221.216 694.870 C 220.270 693.540, 219.153 693.219, 216.981 693.654 C 214.878 694.074, 213.865 693.813, 213.455 692.744 C 213.031 691.639, 211.432 691.278, 207.377 691.372 C 204.350 691.442, 201.227 691.860, 200.437 692.300 M 754.500 695.013 C 749.294 698.115, 748.433 698.236, 733.266 697.997 L 725.031 697.866 723.330 701.433 C 721.568 705.130, 721.226 705.322, 716.904 705.047 C 715.090 704.931, 713.786 705.678, 712.576 707.525 C 710.978 709.964, 710.708 710.046, 709.093 708.584 C 706.287 706.044, 700 706.775, 700 709.641 C 700 710.425, 698.473 711.968, 696.607 713.069 C 694.741 714.170, 692.984 715.955, 692.701 717.035 C 692.361 718.334, 691.331 719, 689.661 719 C 688.073 719, 686.915 719.693, 686.542 720.866 C 686.217 721.893, 684.117 724.603, 681.877 726.888 L 677.803 731.044 682.873 730.864 C 687.566 730.698, 688.132 730.399, 690.486 726.842 C 692.459 723.860, 693.675 723, 695.915 723 C 698.155 723, 699.266 722.215, 700.867 719.500 C 703.120 715.682, 703.480 715.583, 709.778 717.036 C 713.125 717.808, 714.691 717.694, 716.978 716.511 C 718.586 715.680, 721.063 715, 722.484 715 C 724.102 715, 726.373 713.693, 728.567 711.500 C 730.492 709.575, 732.891 708, 733.898 708 C 734.906 708, 736.981 707.016, 738.509 705.814 C 741.177 703.716, 741.405 703.696, 744.225 705.314 C 747.786 707.358, 749 707.438, 749 705.630 C 749 704.739, 750.649 704.074, 753.717 703.728 C 756.312 703.436, 758.592 702.725, 758.784 702.149 C 759.734 699.299, 763.376 696, 765.573 696 C 768.487 696, 768.742 694.467, 766.066 693.035 C 762.889 691.335, 759.781 691.867, 754.500 695.013 M 791.218 712.173 C 791.458 712.903, 792.906 713.647, 794.436 713.827 C 796.397 714.057, 797.089 713.762, 796.782 712.827 C 796.542 712.097, 795.094 711.353, 793.564 711.173 C 791.603 710.943, 790.911 711.238, 791.218 712.173 M 763.250 715.721 C 757.808 716.119, 756.941 716.876, 759.500 719 C 760.325 719.685, 761 721.063, 761 722.063 C 761 724.657, 763.087 725.601, 764.512 723.653 C 765.177 722.744, 766.796 721.993, 768.110 721.985 C 771.626 721.962, 773.219 720.582, 772.837 717.887 C 772.468 715.272, 771.715 715.102, 763.250 715.721 M 803.223 731.557 C 800.279 733.618, 800.419 734.829, 803.748 736.094 C 805.260 736.669, 807.252 737.823, 808.177 738.660 C 810.161 740.456, 814 739.600, 814 737.361 C 814 736.358, 814.789 735.960, 816.369 736.167 C 818.833 736.490, 824 734.255, 824 732.866 C 824 730.728, 819.696 729.825, 815.329 731.048 C 811.995 731.981, 810.606 732.006, 809.745 731.145 C 808.166 729.566, 805.856 729.712, 803.223 731.557 M 751.316 743.900 C 750.954 745.283, 749.920 745.800, 747.512 745.800 C 745.694 745.800, 743.259 746.100, 742.103 746.467 C 739.738 747.218, 739.217 750, 741.441 750 C 742.234 750, 743.125 750.393, 743.422 750.873 C 743.718 751.353, 742.057 751.745, 739.731 751.744 C 737.404 751.743, 732.575 752.068, 729 752.466 C 721.684 753.281, 719.918 752.745, 712.641 747.501 C 707.271 743.632, 703.693 743.126, 700.001 745.712 L 697.557 747.423 700.029 748.036 C 702.315 748.603, 702.096 748.868, 697.119 751.574 C 681.064 760.303, 669.987 769.455, 661.507 781 C 656.076 788.392, 650 800.360, 650 803.663 C 650 804.883, 649.550 806.160, 649 806.500 C 647.686 807.312, 647.715 810.706, 649.043 811.527 C 649.617 811.881, 651.692 810.895, 653.654 809.336 C 655.616 807.776, 658.634 805.474, 660.361 804.219 L 663.500 801.938 665.322 804.169 C 666.818 806, 667.444 806.186, 668.822 805.210 C 669.745 804.556, 672.300 803.065, 674.500 801.898 C 676.700 800.730, 679.400 798.984, 680.500 798.018 C 681.600 797.053, 683.737 795.970, 685.250 795.612 C 691.154 794.216, 686.254 790.443, 679.925 791.513 C 676.427 792.104, 675.984 791.949, 675.850 790.088 C 675.768 788.940, 675.655 787.508, 675.600 786.907 C 675.545 786.306, 677.244 785.215, 679.375 784.482 C 685.145 782.498, 685.978 781.254, 683.029 779.025 L 680.558 777.158 683.279 775.919 C 685.231 775.029, 686 773.940, 686 772.062 C 686 767.920, 688.628 765.083, 693.133 764.363 C 696.081 763.891, 697.390 763.103, 698.033 761.413 C 698.660 759.764, 699.990 758.929, 702.705 758.482 C 704.792 758.138, 707.417 757.413, 708.538 756.872 C 709.898 756.216, 711.507 756.242, 713.372 756.951 C 714.910 757.536, 716.549 757.779, 717.015 757.491 C 717.481 757.203, 718.156 757.443, 718.515 758.024 C 720.071 760.542, 727.077 764.019, 729.414 763.432 C 730.734 763.101, 732.832 763.375, 734.077 764.041 C 736.074 765.110, 736.566 764.943, 738.254 762.626 C 739.521 760.887, 741.100 760, 742.928 760 C 745.609 760, 749 757.389, 749 755.324 C 749 754.764, 747.987 753.817, 746.750 753.220 C 744.506 752.138, 744.507 752.135, 747.089 752.068 C 748.875 752.021, 750.049 751.187, 750.872 749.382 C 751.887 747.154, 752.514 746.853, 755.071 747.364 C 758.501 748.050, 760.059 745.981, 757.989 743.487 C 756.193 741.323, 751.921 741.587, 751.316 743.900 M 237 743.600 C 233.500 744.226, 226.123 746.021, 222.172 747.207 L 218.844 748.207 221.672 749.678 C 223.589 750.675, 226.798 751.054, 231.633 750.855 C 235.768 750.684, 239.340 751.021, 240.133 751.658 C 240.885 752.261, 242.512 753.066, 243.750 753.445 C 248.120 754.785, 245.896 755.750, 236.803 756.462 C 229.325 757.046, 227.408 756.910, 226.547 755.734 C 224.225 752.558, 205 756.259, 205 759.881 C 205 761.021, 215.627 768, 217.362 768 C 218.128 768, 219.327 767.311, 220.026 766.468 C 220.772 765.570, 222.788 764.974, 224.899 765.028 C 226.879 765.079, 231.681 764.666, 235.570 764.110 C 243.387 762.993, 247.779 763.276, 251.220 765.118 C 252.474 765.789, 253.613 766.262, 253.750 766.169 C 254.742 765.499, 255.964 766.313, 256.500 768 C 256.890 769.229, 258.013 770, 259.412 770 C 260.665 770, 262.505 770.900, 263.500 772 C 264.590 773.204, 266.580 774, 268.502 774 C 270.258 774, 272.721 774.891, 273.976 775.979 C 275.231 777.068, 276.634 777.726, 277.093 777.442 C 277.553 777.159, 279.075 778.743, 280.477 780.963 C 283.379 785.561, 284.860 785.868, 289.705 782.873 C 292.257 781.296, 293.437 781.037, 294.273 781.873 C 295.813 783.413, 298.729 783.291, 299.700 781.646 C 300.140 780.901, 301.512 779.760, 302.750 779.111 C 303.988 778.461, 305 777.383, 305 776.715 C 305 774.226, 311.346 770.326, 314.973 770.584 C 316.883 770.720, 319.246 770.404, 320.223 769.881 C 321.200 769.358, 322 769.311, 322 769.777 C 322 771.486, 328.584 775.428, 331.498 775.464 C 333.985 775.494, 334.552 775.952, 334.805 778.133 C 334.973 779.581, 336.022 781.606, 337.137 782.633 C 338.252 783.660, 340.432 785.737, 341.983 787.250 C 343.537 788.765, 345.925 790, 347.303 790 C 349.183 790, 350.064 790.745, 350.850 793 C 352.010 796.327, 353.138 796.719, 355.310 794.548 C 356.108 793.749, 357.040 793.374, 357.381 793.714 C 358.943 795.276, 357.786 789.957, 356.115 787.893 C 354.571 785.987, 353.960 785.788, 352.743 786.799 C 351.504 787.827, 351.048 787.530, 350.007 785.016 C 349.320 783.357, 348.339 782, 347.828 782 C 347.316 782, 346.265 780.485, 345.491 778.633 C 344.457 776.159, 343.279 775.106, 341.042 774.658 C 339.367 774.323, 338 773.412, 338 772.631 C 338 770.239, 331.921 764.468, 329.781 764.827 C 328.710 765.007, 327.244 764.349, 326.525 763.365 C 325.452 761.897, 324.944 761.802, 323.700 762.834 C 322.867 763.526, 320.394 763.986, 318.207 763.857 C 314.971 763.666, 313.788 764.126, 311.864 766.323 C 310.426 767.965, 308.215 769.164, 306.220 769.384 C 304.416 769.582, 302.135 770.473, 301.152 771.362 C 299.477 772.878, 299.063 772.631, 294.597 767.458 C 289.373 761.407, 282.223 755.701, 274.530 751.441 C 265.284 746.323, 245.216 742.130, 237 743.600 M 685.507 746.989 C 685.157 747.555, 685.558 747.723, 686.448 747.382 C 688.180 746.717, 688.497 746, 687.059 746 C 686.541 746, 685.843 746.445, 685.507 746.989 M 720.672 746.974 L 714.843 747.500 718.172 749.471 C 721.522 751.455, 732.019 752.314, 733.600 750.733 C 735.631 748.702, 727.552 746.352, 720.672 746.974 M 203.021 750.678 C 199.837 752.064, 199.693 752.302, 201.318 753.490 C 204.224 755.616, 210.204 752.757, 208.527 750.044 C 207.728 748.751, 207.344 748.796, 203.021 750.678 M 187.130 764.084 C 182.636 767.304, 177.520 771.282, 175.763 772.924 L 172.567 775.911 174.860 778.351 C 176.913 780.536, 177.040 781.193, 176.081 784.645 C 174.215 791.369, 174.713 795.318, 177.875 798.860 L 180.750 802.080 184.216 800.035 L 187.681 797.990 189.496 799.995 C 191.716 802.449, 194.574 802.584, 195.854 800.296 C 196.665 798.847, 197.204 798.772, 199.451 799.796 C 203.285 801.542, 205.090 801.303, 209.215 798.500 C 213.034 795.905, 215.918 795.352, 217.550 796.902 C 218.122 797.446, 220.687 796.776, 224 795.217 L 229.500 792.631 224 792.055 C 220.975 791.738, 217.851 791.066, 217.058 790.562 C 216.265 790.057, 211.990 789.276, 207.558 788.826 C 189.813 787.023, 186.373 785.731, 193.198 783.433 C 196.285 782.394, 197.310 781.280, 198.375 777.805 C 199.035 775.653, 205.099 774.448, 207.853 775.921 C 209.553 776.831, 210.099 776.683, 210.958 775.078 C 213.531 770.271, 211.644 767.793, 200.401 761.214 L 195.303 758.230 187.130 764.084 M 804.093 764.802 C 802.119 765.460, 802.949 767.656, 805.637 768.880 C 808.341 770.113, 815.438 769.584, 818.076 767.953 C 820.660 766.356, 817.496 764.826, 811.202 764.627 C 807.893 764.523, 804.694 764.602, 804.093 764.802 M 797 768.777 C 797 769.205, 797.719 770.581, 798.597 771.835 C 799.711 773.426, 800.992 774.021, 802.838 773.807 C 806.367 773.397, 806.753 770.664, 803.492 769.178 C 800.550 767.838, 797 767.619, 797 768.777 M 817.842 771.384 C 810.797 772.900, 804.212 778.100, 804.085 782.250 C 803.986 785.443, 803.500 785.391, 812.500 783.140 C 818.626 781.607, 819.802 780.927, 821.918 777.694 C 823.277 775.617, 825.153 774, 826.203 774 C 827.760 774, 827.893 773.668, 827 772 C 825.787 769.733, 825.585 769.719, 817.842 771.384 M 763.941 775.131 C 761.600 777.974, 757.796 779.056, 754.125 777.924 C 751.511 777.118, 751.847 779.991, 754.484 780.994 C 758.845 782.652, 763.514 782.171, 766.564 779.750 C 768.122 778.513, 771.183 776.825, 773.366 776 C 779.222 773.787, 778.816 772.524, 772.188 772.334 C 766.874 772.182, 766.176 772.418, 763.941 775.131 M 774.920 778.479 C 772.401 779.792, 769.100 782.491, 767.585 784.478 C 766.070 786.464, 761.606 790.216, 757.665 792.816 C 751.916 796.608, 750.435 798.107, 750.171 800.401 L 749.842 803.261 753.171 801.238 C 757.134 798.829, 759.166 799.364, 765.368 804.445 L 769.581 807.898 773.904 805.443 C 776.281 804.092, 779.560 801.865, 781.190 800.494 C 782.820 799.122, 784.568 798, 785.074 798 C 786.107 798, 796.150 791.055, 797.131 789.662 C 797.999 788.431, 797.081 778.709, 795.992 777.605 C 795.473 777.078, 793.224 777.237, 790.534 777.991 C 786.530 779.112, 785.732 779.067, 784.150 777.636 C 781.782 775.492, 780.413 775.617, 774.920 778.479 M 826.250 776.662 C 824.088 777.535, 824.858 779.453, 829.623 785.060 C 835.017 791.408, 835.879 791.886, 837.625 789.499 C 839.049 787.551, 838.463 779.438, 836.739 777.250 C 835.784 776.037, 828.774 775.644, 826.250 776.662 M 164.037 783.585 C 160.340 786.926, 160.059 787.488, 161.412 788.840 C 163.858 791.287, 167.734 788.935, 168.566 784.499 C 168.937 782.523, 169.001 780.668, 168.709 780.376 C 168.417 780.084, 166.315 781.528, 164.037 783.585 M 748 783.345 C 748 786.864, 754.273 789.327, 756.800 786.800 C 758.633 784.967, 758.278 784.292, 754.851 783.098 C 750.612 781.620, 748 781.715, 748 783.345 M 719.695 789.700 C 716.769 790.458, 718.343 792.436, 722.576 793.320 C 724.734 793.771, 730.282 795.022, 734.904 796.100 L 743.307 798.059 747.131 795.409 C 752.557 791.649, 753.794 790, 751.188 790 C 750.056 790, 748.010 790.426, 746.640 790.947 C 744.884 791.614, 742.494 791.422, 738.528 790.294 C 733.117 788.755, 732.801 788.771, 730.159 790.724 C 727.467 792.714, 727.369 792.717, 725.096 790.877 C 723.821 789.845, 722.491 789.052, 722.139 789.116 C 721.788 789.180, 720.688 789.443, 719.695 789.700 M 709.270 796.454 C 705.843 797.579, 703.031 798.852, 703.020 799.282 C 702.979 800.881, 707.402 801.615, 711.111 800.625 C 714.277 799.780, 715.599 799.933, 718.721 801.508 C 720.832 802.573, 723.983 803.282, 725.859 803.116 C 728.506 802.882, 729.910 803.490, 732.487 805.988 C 736.680 810.051, 740.965 809.926, 742.443 805.697 C 744.349 800.247, 742.595 799.366, 722.500 795.689 C 716.095 794.518, 714.970 794.583, 709.270 796.454 M 352.500 877.955 C 342.873 878.432, 342.041 878.606, 345.833 879.352 C 352.002 880.565, 644.288 880.498, 646.459 879.283 C 647.657 878.612, 643.473 878.115, 632.722 877.652 C 614.784 876.878, 368.865 877.145, 352.500 877.955 M 390.984 889.305 C 390.700 889.613, 368.200 889.943, 340.984 890.037 C 313.768 890.132, 288.575 890.479, 285 890.809 L 278.500 891.410 283.500 892.609 C 286.951 893.436, 287.725 893.873, 286 894.019 C 284.129 894.177, 284.506 894.435, 287.500 895.044 C 289.700 895.491, 385.325 895.943, 500 896.048 C 614.675 896.152, 710.032 896.297, 711.905 896.369 C 713.838 896.443, 715.495 895.960, 715.738 895.250 C 715.974 894.563, 715.454 894, 714.583 894 C 713.712 894, 713 893.550, 713 893 C 713 892.450, 713.540 892, 714.200 892 C 715.037 892, 715.083 891.683, 714.351 890.951 C 713.246 889.846, 391.991 888.211, 390.984 889.305 M 274.813 895.683 C 275.534 895.972, 276.397 895.936, 276.729 895.604 C 277.061 895.272, 276.471 895.036, 275.417 895.079 C 274.252 895.127, 274.015 895.364, 274.813 895.683 M 346.634 900.758 C 298.098 900.979, 289.939 901.221, 290.928 902.413 C 291.906 903.592, 289.898 903.922, 278.043 904.533 C 270.319 904.931, 264 905.571, 264 905.956 C 264 906.715, 278.758 908.536, 297 910.027 C 303.325 910.544, 319.300 910.979, 332.500 910.994 C 361.309 911.025, 404.327 912.689, 408.500 913.934 C 411.217 914.744, 410.982 914.852, 406 915.087 C 400.276 915.356, 416.529 916.556, 431 916.932 C 435.894 917.059, 437.805 917.403, 436.500 917.922 C 435.400 918.360, 413.687 918.980, 388.249 919.301 C 362.811 919.621, 341.541 920.166, 340.982 920.511 C 340.424 920.856, 340.226 921.557, 340.543 922.069 C 340.894 922.638, 325.815 923.001, 301.809 923.002 C 260.620 923.005, 218.613 923.947, 219.514 924.847 C 219.805 925.138, 249.845 925.694, 286.271 926.084 C 345.758 926.720, 355.452 927.055, 381.500 929.381 C 397.450 930.805, 412.300 932.515, 414.500 933.181 C 419.840 934.798, 602.352 934.783, 604.300 933.166 C 606.310 931.498, 635.523 928.128, 657.500 927.028 C 668.500 926.478, 702.475 926.018, 733 926.007 C 763.525 925.995, 791.650 925.651, 795.500 925.243 L 802.500 924.500 792.500 923.971 C 787 923.681, 755.515 923.331, 722.534 923.195 C 671.883 922.985, 662.221 922.720, 660.335 921.484 C 658.543 920.310, 650.557 919.834, 619.950 919.077 C 581.404 918.123, 569.428 917.104, 594.083 916.876 C 608.723 916.740, 624.555 915.511, 617.500 915.058 C 615.300 914.916, 612.375 914.472, 611 914.070 C 607.096 912.928, 626.799 911.966, 674 910.993 C 697.375 910.511, 718.300 909.684, 720.500 909.154 C 722.700 908.625, 728.550 907.835, 733.500 907.398 L 742.500 906.604 733 905.766 C 727.775 905.306, 718.775 904.587, 713 904.169 L 702.500 903.410 709.295 902.583 C 713.033 902.129, 715.890 901.556, 715.644 901.311 C 715.130 900.797, 431.592 900.372, 346.634 900.758 M 691.750 935.706 C 692.987 935.944, 695.013 935.944, 696.250 935.706 C 697.487 935.467, 696.475 935.272, 694 935.272 C 691.525 935.272, 690.513 935.467, 691.750 935.706 M 708.269 935.693 C 709.242 935.947, 710.592 935.930, 711.269 935.656 C 711.946 935.382, 711.150 935.175, 709.500 935.195 C 707.850 935.215, 707.296 935.439, 708.269 935.693 M 726.813 935.683 C 727.534 935.972, 728.397 935.936, 728.729 935.604 C 729.061 935.272, 728.471 935.036, 727.417 935.079 C 726.252 935.127, 726.015 935.364, 726.813 935.683 M 738.813 935.683 C 739.534 935.972, 740.397 935.936, 740.729 935.604 C 741.061 935.272, 740.471 935.036, 739.417 935.079 C 738.252 935.127, 738.015 935.364, 738.813 935.683 M 763.269 935.693 C 764.242 935.947, 765.592 935.930, 766.269 935.656 C 766.946 935.382, 766.150 935.175, 764.500 935.195 C 762.850 935.215, 762.296 935.439, 763.269 935.693 M 386.832 948 C 330.123 948.842, 345.797 950.922, 410.404 951.128 C 432.457 951.198, 458.825 951.567, 469 951.948 C 487.087 952.625, 487.243 952.649, 476 953.028 C 469.675 953.242, 461.125 953.442, 457 953.474 C 427.127 953.700, 410.851 954.282, 414 955.011 C 427.227 958.072, 545.406 959.080, 582.365 956.447 C 601.917 955.053, 607.005 954.089, 595.917 953.878 C 592.388 953.810, 585.450 953.595, 580.500 953.399 C 575.550 953.203, 559.350 952.980, 544.500 952.903 C 529.650 952.826, 518.850 952.420, 520.500 952 C 522.150 951.580, 543.115 951.183, 567.089 951.118 C 619.459 950.976, 652.107 950.017, 647 948.771 C 643.104 947.820, 439.564 947.217, 386.832 948 M 432.074 965.226 C 404.751 965.682, 388.269 966.331, 387.624 966.976 C 386.925 967.675, 424.836 967.980, 507.050 967.937 C 573.297 967.902, 626.600 967.509, 625.500 967.064 C 622.724 965.941, 528.742 963.790, 499.500 964.180 C 486.300 964.356, 455.958 964.827, 432.074 965.226" stroke="none" fill="#FF0000" fill-rule="evenodd"/>
</svg>